{"glyphs":{"0":{"ha":669,"x_min":36,"x_max":628,"o":"m 594 222 q 577 171 594 222 q 494 53 560 119 q 337 -12 429 -12 q 172 53 244 -12 q 36 425 36 174 q 71 656 36 547 q 178 836 106 764 q 343 908 250 908 q 503 839 436 908 q 628 439 628 707 q 594 222 628 325 m 154 457 q 194 239 154 354 q 254 140 214 179 q 347 101 294 101 q 459 207 417 101 q 501 453 501 313 q 455 695 501 594 q 321 796 408 796 q 206 702 257 796 q 154 457 154 608 z "},"1":{"ha":399,"x_min":21,"x_max":304,"o":"m 63 651 l 21 726 l 207 903 l 293 904 l 293 651 q 294 346 293 386 l 304 1 l 167 -7 l 174 439 q 175 608 175 525 q 174 735 175 690 l 63 651 z "},"2":{"ha":592,"x_min":49,"x_max":550,"o":"m 201 107 l 547 124 l 542 0 l 57 0 l 65 88 q 181 242 101 138 q 304 407 261 347 q 385 540 347 467 q 424 667 424 613 q 383 756 424 722 q 287 789 343 789 q 179 765 231 789 q 96 699 128 742 l 49 810 q 294 911 168 911 q 485 846 421 911 q 550 674 550 781 q 510 531 550 613 q 422 388 469 450 q 303 238 374 326 q 201 107 232 150 z "},"3":{"ha":631,"x_min":42,"x_max":565,"o":"m 78 854 q 284 920 158 921 q 483 858 410 919 q 556 711 556 797 q 425 514 556 592 q 526 426 488 490 q 565 294 565 363 q 481 80 565 174 q 253 -14 396 -14 q 42 50 142 -14 l 114 150 q 192 110 140 128 q 283 92 243 92 q 398 141 354 92 q 442 258 442 190 q 232 454 442 454 q 194 453 207 454 l 206 539 q 363 577 289 539 q 436 692 436 615 q 394 785 436 751 q 297 819 353 819 q 192 803 242 819 q 114 758 143 786 l 78 854 z "},"4":{"ha":672,"x_min":42,"x_max":668,"o":"m 435 693 l 547 689 l 558 333 l 668 333 l 667 228 q 561 229 610 228 l 568 1 l 442 1 l 436 231 l 357 231 q 54 219 164 231 l 42 310 l 357 922 l 461 867 l 164 333 l 435 333 l 435 693 z "},"5":{"ha":631,"x_min":42,"x_max":575,"o":"m 54 901 l 536 908 l 525 793 l 161 800 l 165 558 q 282 581 225 581 q 489 505 403 581 q 575 295 575 429 q 481 74 575 161 q 264 -14 386 -14 q 42 50 142 -14 l 114 150 q 193 114 140 131 q 286 97 246 97 q 406 153 361 97 q 451 295 451 208 q 390 430 451 382 q 247 478 329 478 q 114 439 164 478 l 61 496 l 54 901 z "},"6":{"ha":699,"x_min":61,"x_max":635,"o":"m 568 925 l 624 828 q 340 713 454 811 q 201 506 226 615 q 229 531 206 514 q 297 566 253 549 q 388 583 342 583 q 567 503 499 583 q 635 302 635 422 q 553 88 635 182 q 353 -6 472 -6 q 136 91 211 -6 q 61 335 61 188 q 95 528 61 431 q 191 711 129 626 q 351 854 253 796 q 568 925 450 913 m 363 94 q 470 147 424 94 q 517 278 517 200 q 451 449 517 386 q 365 483 415 483 q 183 283 183 483 q 230 153 183 211 q 363 94 276 94 z "},"7":{"ha":696,"x_min":103,"x_max":644,"o":"m 539 799 l 107 783 l 103 901 l 399 900 q 626 903 535 900 l 644 826 q 457 416 592 696 q 257 -26 322 136 l 142 39 l 539 799 z "},"8":{"ha":663,"x_min":50,"x_max":614,"o":"m 464 507 q 576 399 539 463 q 614 265 614 335 q 531 71 614 154 q 319 -12 447 -12 q 121 65 192 -12 q 50 247 50 143 q 92 390 50 325 q 213 493 133 456 q 88 693 88 568 q 161 852 88 788 q 342 917 235 917 q 519 865 450 917 q 588 717 588 814 q 553 594 588 657 q 464 507 519 532 m 315 453 q 203 382 246 439 q 161 257 161 325 q 201 140 161 189 q 317 92 242 92 q 446 136 393 92 q 499 257 499 181 q 450 377 499 333 q 315 453 401 421 m 337 818 q 309 818 337 818 q 243 787 281 818 q 206 700 206 756 q 244 611 206 644 q 357 549 282 578 q 441 607 410 568 q 472 701 472 646 q 433 787 472 756 q 337 818 393 818 z "},"9":{"ha":699,"x_min":63,"x_max":639,"o":"m 189 -11 l 133 81 q 370 184 271 100 q 486 403 469 268 q 295 336 393 336 q 130 414 197 336 q 63 615 63 492 q 144 831 63 738 q 344 925 225 925 q 563 836 488 925 q 639 603 639 747 q 526 211 639 396 q 384 62 472 122 q 189 -11 296 1 m 333 828 q 226 775 272 828 q 179 644 179 722 q 244 474 179 536 q 331 439 281 439 q 513 639 513 439 q 466 769 513 711 q 333 828 419 828 z "}," ":{"ha":351,"x_min":0,"x_max":0,"o":""},"!":{"ha":225,"x_min":26,"x_max":193,"o":"m 153 218 l 65 224 l 53 928 l 182 951 q 153 218 169 769 m 193 85 q 170 22 193 47 q 108 -3 147 -3 q 48 15 69 -3 q 26 65 26 32 q 53 122 26 97 q 122 147 79 147 q 193 85 193 147 z "},"\"":{"ha":594,"x_min":94,"x_max":503,"o":"m 118 699 q 94 1029 96 1007 l 243 1033 q 192 706 231 879 l 118 699 m 354 1029 l 503 1033 q 451 706 490 890 l 378 699 q 354 1029 364 947 z "},"#":{"ha":772,"x_min":40,"x_max":703,"o":"m 99 538 l 99 640 q 249 638 199 638 l 304 893 l 411 900 l 351 638 l 472 638 l 529 899 l 636 906 l 575 638 l 703 640 l 703 538 q 553 540 653 538 l 514 365 l 644 368 l 644 265 l 492 268 l 433 4 l 333 0 l 392 268 l 268 268 l 208 0 l 108 -4 l 167 267 l 40 265 l 40 368 q 189 365 138 365 l 226 539 l 99 538 m 451 540 l 331 540 l 290 365 l 413 365 l 451 540 z "},"$":{"ha":576,"x_min":58,"x_max":528,"o":"m 263 863 l 346 856 l 343 771 q 501 732 422 767 l 483 626 q 342 658 408 654 l 336 403 q 513 279 481 351 q 528 199 528 244 q 472 63 528 115 q 328 -6 417 10 l 326 -97 l 244 -97 l 246 -11 q 58 26 140 -7 l 81 126 q 247 88 189 89 l 251 319 q 112 400 164 353 q 60 537 60 447 q 115 686 60 626 q 260 764 171 746 l 263 863 m 164 540 q 254 435 164 472 l 258 651 q 164 540 164 626 m 417 199 q 335 288 417 251 l 331 97 q 417 199 417 121 z "},"%":{"ha":1029,"x_min":69,"x_max":960,"o":"m 740 925 l 835 875 l 271 -25 l 183 24 l 740 925 m 569 213 q 569 252 569 213 q 625 352 569 292 q 774 413 681 413 q 913 356 867 413 q 960 221 960 300 q 909 83 960 142 q 767 24 858 24 q 623 79 676 24 q 569 213 569 135 m 669 219 q 669 199 669 219 q 696 149 669 179 q 765 118 722 118 q 835 147 808 118 q 863 219 863 175 q 839 291 863 264 q 769 318 815 318 q 697 288 724 318 q 669 219 669 258 m 69 678 q 69 718 69 678 q 125 817 69 757 q 274 878 181 878 q 413 826 367 878 q 460 697 460 775 q 409 553 460 618 q 267 489 358 489 q 123 544 176 489 q 69 678 69 600 m 265 582 q 360 683 360 582 q 335 758 360 732 q 266 783 310 783 q 196 753 222 783 q 169 684 169 724 q 197 613 169 644 q 265 582 225 582 z "},"&":{"ha":808,"x_min":17,"x_max":875,"o":"m 875 81 l 792 -18 q 610 76 700 19 q 337 -39 494 -39 q 98 36 179 -39 q 17 221 17 111 q 51 365 17 294 q 150 485 85 436 q 82 642 82 579 q 164 833 82 750 q 369 915 246 915 q 574 800 492 915 l 474 733 q 360 801 425 801 q 251 759 296 801 q 207 647 207 717 q 322 450 207 576 q 589 219 438 324 q 615 329 615 275 q 564 492 615 419 l 672 547 q 725 358 725 460 q 675 164 725 257 q 875 81 785 100 m 206 414 q 132 261 132 351 q 199 119 132 171 q 361 68 265 68 q 522 133 457 68 q 206 414 335 264 z "},"'":{"ha":233,"x_min":56,"x_max":200,"o":"m 56 1021 l 200 1028 q 149 706 181 850 l 79 699 q 56 1021 75 786 z "},"(":{"ha":449,"x_min":67,"x_max":382,"o":"m 300 1067 l 382 999 q 316 899 357 969 q 248 764 275 828 q 199 606 221 700 q 176 421 176 511 q 379 -89 176 142 l 297 -172 q 222 -75 265 -140 q 147 55 178 -10 q 92 219 117 119 q 67 421 67 318 q 122 744 67 575 q 300 1067 178 914 z "},")":{"ha":497,"x_min":72,"x_max":392,"o":"m 161 -179 l 72 -101 q 215 118 158 -29 q 271 438 271 265 q 78 999 271 758 l 153 1067 q 324 796 257 968 q 392 432 392 624 q 161 -179 392 76 z "},"*":{"ha":631,"x_min":58,"x_max":560,"o":"m 500 586 q 340 713 481 601 q 365 511 356 575 l 251 508 q 281 713 260 551 q 118 590 150 615 l 58 688 q 256 765 108 706 q 164 801 232 774 q 60 840 96 828 l 111 942 q 192 881 135 924 q 281 814 249 839 q 251 1017 264 946 l 365 1021 q 352 915 360 983 q 340 814 344 846 q 393 856 361 831 q 451 902 425 882 q 499 942 476 922 l 560 847 q 478 813 549 843 q 364 765 408 782 l 554 688 l 500 586 z "},"+":{"ha":839,"x_min":69,"x_max":769,"o":"m 69 389 l 69 492 q 371 489 169 489 q 368 790 371 551 l 471 790 q 468 489 468 688 q 769 492 668 489 l 769 389 q 468 392 567 392 q 471 90 468 189 l 368 90 q 371 392 371 288 q 69 389 269 392 z "},",":{"ha":239,"x_min":24,"x_max":211,"o":"m 135 150 q 211 71 211 150 q 186 -18 211 38 q 136 -114 161 -74 l 113 -153 l 24 -107 l 121 8 l 115 14 q 81 6 96 6 q 51 24 65 6 q 38 70 38 42 q 65 124 38 99 q 135 150 92 150 z "},"-":{"ha":431,"x_min":42,"x_max":393,"o":"m 58 483 q 210 481 129 481 l 393 483 q 350 376 356 376 q 228 381 267 381 l 42 378 l 58 483 z "},".":{"ha":235,"x_min":33,"x_max":200,"o":"m 200 85 q 177 22 200 47 q 115 -3 154 -3 q 55 15 76 -3 q 33 65 33 32 q 60 122 33 97 q 129 147 86 147 q 200 85 200 147 z "},"/":{"ha":506,"x_min":-44,"x_max":550,"o":"m -44 -4 l 446 1058 l 550 1044 l 57 -25 l -44 -4 z "},":":{"ha":311,"x_min":56,"x_max":233,"o":"m 233 435 q 210 372 233 397 q 149 347 188 347 q 88 365 110 347 q 67 415 67 382 q 93 472 67 447 q 163 497 119 497 q 233 435 233 497 m 222 89 q 199 26 222 51 q 138 1 176 1 q 77 19 99 1 q 56 69 56 36 q 82 126 56 101 q 151 151 108 151 q 222 89 222 151 z "},";":{"ha":258,"x_min":26,"x_max":214,"o":"m 138 150 q 214 71 214 150 q 189 -18 214 38 q 139 -114 164 -74 l 115 -153 l 26 -107 l 124 8 l 118 14 q 83 6 99 6 q 54 24 68 6 q 40 70 40 42 q 67 124 40 99 q 138 150 94 150 m 204 435 q 181 372 204 397 q 119 347 158 347 q 59 365 81 347 q 38 415 38 382 q 64 472 38 447 q 133 497 90 497 q 204 435 204 497 z "},"<":{"ha":944,"x_min":97,"x_max":847,"o":"m 847 726 l 217 440 l 847 154 l 800 56 l 97 389 l 97 492 l 800 825 l 847 726 z "},"=":{"ha":894,"x_min":97,"x_max":797,"o":"m 97 515 l 97 618 q 447 615 214 615 q 797 618 681 615 l 797 515 q 447 518 564 518 q 97 515 331 518 m 97 243 l 97 346 q 447 343 214 343 q 797 346 681 343 l 797 243 q 447 246 564 246 q 97 243 331 246 z "},">":{"ha":944,"x_min":97,"x_max":847,"o":"m 728 440 l 97 726 l 144 825 l 847 492 l 847 389 l 144 56 l 97 154 l 728 440 z "},"?":{"ha":501,"x_min":42,"x_max":501,"o":"m 93 806 l 42 889 q 226 964 111 964 q 421 892 340 964 q 501 709 501 821 q 428 529 501 597 q 253 439 354 461 l 244 219 l 154 225 l 157 515 q 318 580 257 518 q 379 713 379 642 q 330 822 379 783 q 210 861 281 861 q 93 806 139 861 m 285 86 q 262 24 285 49 q 200 -1 239 -1 q 140 16 161 -1 q 118 66 118 33 q 144 124 118 99 q 214 149 171 149 q 285 86 285 149 z "},"@":{"ha":775,"x_min":31,"x_max":733,"o":"m 239 240 q 302 400 239 342 q 461 458 365 458 q 624 379 557 458 l 628 382 q 575 521 628 475 q 447 567 522 567 q 237 474 326 567 q 147 243 147 381 q 226 25 147 106 q 417 -56 304 -56 q 575 -11 499 -56 l 590 -124 q 414 -161 507 -161 q 144 -61 257 -161 q 31 219 31 39 q 150 532 31 399 q 456 665 269 665 q 668 584 603 665 q 733 338 733 503 q 719 71 733 274 l 635 64 l 632 131 l 622 133 q 444 53 558 53 q 303 101 363 53 q 239 240 243 150 m 485 140 q 511 140 485 140 q 575 172 538 140 q 613 254 613 204 q 567 339 613 304 q 469 374 522 374 q 386 342 417 374 q 356 260 356 311 q 394 174 356 208 q 485 140 432 140 z "},"A":{"ha":658,"x_min":14,"x_max":642,"o":"m 446 238 l 192 243 l 133 -18 l 14 0 l 243 892 l 353 900 l 642 0 l 521 -18 l 446 238 m 211 328 l 421 322 l 301 733 l 211 328 z "},"B":{"ha":618,"x_min":76,"x_max":590,"o":"m 76 875 q 285 904 164 904 q 473 841 406 904 q 540 688 540 778 q 511 576 540 631 q 431 492 482 522 q 539 426 488 481 q 590 267 590 371 q 566 144 590 196 q 505 65 542 93 q 408 19 468 36 q 292 -1 347 3 q 179 -6 238 -6 q 86 0 121 -6 l 76 875 m 199 411 l 201 107 q 282 99 238 99 q 417 140 361 99 q 474 263 474 182 q 423 384 474 344 q 307 424 372 424 q 199 411 242 424 m 194 800 l 197 489 q 369 537 317 496 q 422 657 422 578 q 381 774 422 736 q 272 811 340 811 q 194 800 236 811 z "},"C":{"ha":669,"x_min":42,"x_max":642,"o":"m 525 728 q 396 792 481 792 q 289 762 335 792 q 217 683 243 732 q 165 449 165 589 q 224 201 165 308 q 407 94 282 94 q 542 182 501 94 l 642 150 q 556 29 611 76 q 390 -18 501 -18 q 42 443 42 -18 q 122 764 42 635 q 235 867 163 829 q 407 904 308 904 q 619 814 549 904 l 525 728 z "},"D":{"ha":746,"x_min":71,"x_max":704,"o":"m 267 -1 q 88 7 142 -1 l 71 896 q 219 899 94 899 q 424 876 344 899 q 568 806 503 854 q 704 461 704 704 q 585 122 704 244 q 267 -1 467 -1 m 575 447 q 575 547 575 447 q 481 728 575 647 q 197 810 386 810 l 204 93 q 461 167 358 93 q 575 447 575 246 z "},"E":{"ha":533,"x_min":58,"x_max":492,"o":"m 58 889 l 479 911 l 485 788 l 182 789 l 188 522 l 431 526 l 429 404 l 192 410 l 192 114 l 492 122 l 492 -4 l 75 1 l 58 889 z "},"F":{"ha":482,"x_min":58,"x_max":485,"o":"m 181 4 l 58 3 l 69 889 l 485 901 l 485 786 l 189 794 l 189 514 l 426 524 l 421 400 l 185 403 l 181 4 z "},"G":{"ha":681,"x_min":35,"x_max":639,"o":"m 383 453 l 635 446 q 639 344 639 396 q 626 232 639 292 q 585 116 613 172 q 506 25 557 60 q 374 -10 456 -10 q 221 26 292 -10 q 111 126 150 61 q 35 447 35 251 q 125 764 35 632 q 242 866 169 828 q 395 904 314 904 q 526 877 476 904 q 621 788 575 850 l 522 719 q 389 793 463 793 q 216 688 278 793 q 154 439 154 583 q 201 224 154 335 q 269 132 225 168 q 376 96 314 96 q 482 163 438 96 q 526 333 526 231 q 526 353 526 343 l 383 354 l 383 453 z "},"H":{"ha":729,"x_min":68,"x_max":671,"o":"m 528 906 l 647 901 l 671 1 l 542 1 l 535 376 l 211 376 l 211 -8 l 100 -8 l 68 906 l 196 906 l 210 493 l 533 493 l 528 906 z "},"I":{"ha":289,"x_min":79,"x_max":215,"o":"m 79 899 l 215 906 l 200 4 l 88 0 l 79 899 z "},"J":{"ha":658,"x_min":14,"x_max":588,"o":"m 474 413 l 460 900 l 585 910 q 588 492 588 571 q 581 348 588 413 q 556 215 575 283 q 506 102 538 147 q 422 28 475 57 q 292 -1 368 -1 q 154 33 217 -1 q 14 139 92 68 l 82 243 q 195 160 131 197 q 314 124 260 124 q 401 150 368 124 q 450 224 435 176 q 474 413 474 303 z "},"K":{"ha":693,"x_min":67,"x_max":676,"o":"m 200 372 l 206 4 l 79 -10 l 67 899 l 200 907 l 192 485 l 507 918 l 622 872 l 286 450 l 676 61 l 581 -19 l 200 372 z "},"L":{"ha":621,"x_min":67,"x_max":590,"o":"m 83 4 l 67 897 l 197 908 l 210 100 l 590 108 l 585 -12 l 83 4 z "},"M":{"ha":892,"x_min":58,"x_max":833,"o":"m 833 4 l 725 -7 l 700 606 l 510 3 l 417 0 l 196 615 l 189 -14 l 58 -7 l 104 913 l 203 908 l 461 165 l 681 910 l 801 907 l 833 4 z "},"N":{"ha":733,"x_min":71,"x_max":663,"o":"m 213 -14 l 90 -8 l 71 890 l 203 897 l 536 267 l 526 913 l 663 903 l 639 -17 l 554 -14 l 183 661 l 213 -14 z "},"O":{"ha":761,"x_min":49,"x_max":713,"o":"m 49 454 q 149 780 49 660 q 383 900 249 900 q 615 789 517 900 q 713 472 713 678 q 639 142 713 282 q 537 29 603 71 q 374 -12 471 -12 q 200 57 278 -12 q 49 454 49 190 m 363 796 q 229 701 288 796 q 171 451 171 607 q 234 196 171 296 q 389 96 297 96 q 589 492 589 96 q 525 715 589 635 q 363 796 461 796 z "},"P":{"ha":582,"x_min":58,"x_max":556,"o":"m 182 294 l 182 -7 l 58 3 l 61 860 q 251 903 186 903 q 474 814 393 903 q 556 601 556 725 q 456 385 556 476 q 219 294 357 294 l 182 294 m 418 492 q 440 589 440 532 q 419 690 440 646 q 361 758 397 735 q 214 804 293 804 q 174 800 194 804 l 179 388 q 418 492 371 407 z "},"Q":{"ha":775,"x_min":56,"x_max":719,"o":"m 56 467 q 156 792 56 672 q 390 913 256 913 q 622 801 524 913 q 719 485 719 690 q 606 96 719 228 l 710 -19 l 608 -97 l 515 26 q 390 0 458 0 q 206 69 283 0 q 56 467 56 201 m 369 808 q 236 714 294 808 q 178 464 178 619 q 241 208 178 308 q 396 108 304 108 q 449 117 424 108 l 388 200 l 463 258 l 531 182 q 596 504 596 279 q 532 728 596 647 q 369 808 468 808 z "},"R":{"ha":624,"x_min":58,"x_max":607,"o":"m 247 904 q 501 826 417 904 q 586 639 586 749 q 418 385 586 474 l 607 25 l 483 -19 l 310 357 l 183 358 l 193 4 l 74 -4 l 58 883 q 247 904 207 904 m 167 793 l 167 464 q 238 461 194 461 q 399 508 321 461 q 476 633 476 554 q 417 761 476 713 q 286 810 358 810 q 167 793 214 810 z "},"S":{"ha":522,"x_min":36,"x_max":489,"o":"m 297 114 q 317 121 297 114 q 357 160 336 128 q 378 239 378 192 q 342 318 378 286 q 257 373 307 350 q 157 424 207 396 q 72 508 107 453 q 36 644 36 564 q 118 842 36 769 q 351 915 200 915 q 440 908 388 915 l 464 796 q 356 808 407 808 q 149 649 149 808 q 268 503 149 550 q 369 459 318 482 q 454 388 419 436 q 489 267 489 339 q 463 143 489 194 q 399 62 438 92 q 300 14 360 32 q 61 -17 201 -17 l 36 100 q 139 92 86 92 q 225 96 192 92 q 297 114 258 100 z "},"T":{"ha":638,"x_min":17,"x_max":621,"o":"m 17 899 l 621 893 l 610 789 l 375 788 l 386 0 l 253 1 l 256 788 l 19 786 l 17 899 z "},"U":{"ha":728,"x_min":56,"x_max":672,"o":"m 660 913 l 672 536 q 578 103 672 229 q 477 22 540 53 q 341 -8 414 -8 q 222 14 268 -8 q 147 82 176 36 q 99 180 118 128 q 69 308 79 232 q 56 608 56 432 l 56 890 l 183 906 q 181 636 181 742 q 187 440 181 531 q 211 269 193 350 q 354 111 247 111 q 499 222 451 111 q 546 567 546 332 q 531 901 546 706 l 660 913 z "},"V":{"ha":749,"x_min":28,"x_max":724,"o":"m 351 -7 l 28 883 l 160 908 l 394 196 l 593 908 l 724 901 l 443 -4 l 351 -7 z "},"W":{"ha":1128,"x_min":17,"x_max":1100,"o":"m 631 696 l 801 188 l 964 915 l 1100 889 l 857 -7 l 753 -4 l 553 574 l 401 -7 l 279 -4 l 17 901 l 160 908 l 343 188 l 489 708 l 631 696 z "},"X":{"ha":788,"x_min":43,"x_max":769,"o":"m 43 864 l 165 911 l 393 533 l 407 533 l 628 921 l 742 864 l 472 446 l 769 21 l 651 -24 l 394 343 l 385 344 l 169 -25 l 56 21 l 315 454 l 43 864 z "},"Y":{"ha":782,"x_min":24,"x_max":758,"o":"m 471 369 l 486 0 l 343 0 l 356 369 l 24 846 l 126 921 l 422 476 l 651 931 l 758 882 l 471 369 z "},"Z":{"ha":692,"x_min":42,"x_max":650,"o":"m 203 111 l 650 124 l 644 -1 l 47 -10 l 42 75 l 490 786 q 76 771 264 783 l 78 894 l 643 894 l 643 810 l 203 111 z "},"[":{"ha":514,"x_min":99,"x_max":415,"o":"m 100 -326 l 99 997 l 408 1014 l 414 907 l 211 915 l 213 -244 l 415 -236 l 410 -343 l 100 -326 z "},"\\":{"ha":506,"x_min":-53,"x_max":542,"o":"m 51 1058 l 542 -4 l 440 -25 l -53 1044 l 51 1058 z "},"]":{"ha":518,"x_min":86,"x_max":403,"o":"m 403 997 l 401 -326 l 92 -343 l 86 -236 l 289 -244 l 290 915 l 88 907 l 93 1014 l 403 997 z "},"^":{"ha":588,"x_min":90,"x_max":483,"o":"m 369 717 l 288 861 l 204 717 l 90 765 l 272 963 l 303 963 l 483 765 l 369 717 z "},"_":{"ha":838,"x_min":69,"x_max":768,"o":"m 76 -3 l 69 104 l 764 104 l 768 4 l 76 -3 z "},"`":{"ha":278,"x_min":8,"x_max":263,"o":"m 122 963 l 263 765 l 186 717 l 8 914 l 122 963 z "},"a":{"ha":575,"x_min":42,"x_max":532,"o":"m 247 -11 q 99 42 157 -11 q 42 186 42 96 q 107 333 42 276 q 261 390 172 390 q 413 333 350 390 l 413 386 q 378 520 413 472 q 294 568 344 568 q 208 545 244 568 q 131 475 171 522 l 68 546 q 306 668 163 668 q 531 414 531 668 q 532 -1 531 160 l 433 -1 l 429 60 l 425 63 q 353 12 406 35 q 247 -11 301 -11 m 414 194 q 372 272 413 244 q 275 300 332 300 q 186 268 218 300 q 154 192 154 236 q 187 115 154 147 q 276 82 219 82 q 373 110 333 82 q 414 194 413 139 z "},"b":{"ha":708,"x_min":-19,"x_max":660,"o":"m -12 897 l -19 1001 l 208 1017 l 188 547 l 199 540 q 261 601 236 579 q 331 642 286 622 q 428 661 376 661 q 599 582 539 661 q 660 399 660 503 q 624 208 660 296 q 517 57 589 119 q 365 -6 444 -6 q 236 15 286 -6 q 155 71 186 36 q 106 158 124 106 q 72 438 72 253 q 82 903 72 624 l -12 897 m 367 97 q 485 183 438 97 q 533 360 533 268 q 499 508 533 453 q 386 563 464 563 q 250 480 308 563 q 192 304 192 397 q 236 154 192 211 q 367 97 281 97 z "},"c":{"ha":588,"x_min":44,"x_max":579,"o":"m 556 607 l 496 518 q 422 551 471 536 q 335 565 372 565 q 198 497 240 565 q 156 331 156 429 q 201 157 156 233 q 321 81 247 81 q 435 109 376 81 q 522 175 494 138 l 579 104 q 475 26 543 60 q 315 -7 407 -7 q 113 81 181 -7 q 44 313 44 168 q 131 560 44 457 q 357 663 217 663 q 556 607 449 663 z "},"d":{"ha":697,"x_min":35,"x_max":633,"o":"m 619 238 l 624 4 l 528 -4 l 515 99 l 504 101 q 263 -7 406 -7 q 92 78 150 -7 q 35 272 35 164 q 67 463 35 381 q 167 603 99 546 q 331 660 236 660 q 501 581 425 660 l 510 585 l 511 908 l 407 904 l 403 1003 l 633 1008 q 626 646 632 900 q 619 238 619 392 m 506 351 q 506 399 506 351 q 460 503 506 446 q 334 561 415 561 q 203 476 253 561 q 153 300 153 390 q 194 156 153 210 q 319 103 236 103 q 453 180 401 103 q 506 351 506 257 z "},"e":{"ha":624,"x_min":44,"x_max":581,"o":"m 572 283 l 163 281 q 213 138 163 192 q 325 85 263 85 q 433 105 388 85 q 497 144 478 125 l 515 165 l 572 90 q 322 -7 492 -7 q 115 75 186 -7 q 44 301 44 157 q 134 553 44 444 q 364 663 224 663 q 528 585 476 663 q 581 385 581 508 q 572 283 581 333 m 472 363 q 442 514 472 463 q 337 565 413 565 q 212 499 261 565 q 161 360 163 433 l 472 363 z "},"f":{"ha":443,"x_min":17,"x_max":576,"o":"m 103 -7 l 108 565 l 17 563 l 21 604 l 119 669 q 176 918 119 817 q 344 1019 233 1019 q 472 1008 414 1019 q 553 986 529 997 l 576 974 l 544 858 q 375 908 463 908 q 229 671 229 908 l 443 679 l 422 561 l 225 565 l 228 10 l 103 -7 z "},"g":{"ha":718,"x_min":50,"x_max":631,"o":"m 50 358 q 120 584 50 494 q 319 674 190 674 q 510 596 447 674 l 522 600 l 538 681 l 626 672 q 631 147 631 417 q 581 -139 631 -8 q 500 -253 554 -210 q 363 -297 446 -297 q 208 -268 279 -297 q 76 -154 138 -239 l 174 -74 q 265 -156 208 -124 q 376 -189 322 -189 q 461 -139 431 -189 q 514 99 514 -54 q 510 163 514 138 q 315 49 426 49 q 160 96 222 49 q 74 210 97 143 q 50 358 50 276 m 322 161 q 363 161 322 161 q 459 229 404 161 q 514 378 514 297 q 459 515 514 460 q 334 571 404 571 q 215 508 264 571 q 167 363 167 444 q 203 222 167 282 q 322 161 240 161 z "},"h":{"ha":728,"x_min":-28,"x_max":649,"o":"m 644 438 l 642 197 l 649 1 l 521 -7 q 526 364 526 260 q 498 509 526 468 q 422 550 469 550 q 321 500 374 550 q 245 381 268 450 q 222 165 222 313 q 228 1 222 18 l 100 -7 q 94 494 94 347 q 86 907 94 640 l -21 899 l -28 1006 l 213 1015 l 213 507 l 224 504 q 265 556 235 524 q 322 610 296 589 q 387 649 349 632 q 461 667 425 667 q 600 602 556 667 q 644 438 644 538 z "},"i":{"ha":311,"x_min":24,"x_max":261,"o":"m 24 579 l 28 671 l 235 671 l 235 0 l 125 -6 q 119 322 125 129 q 113 582 114 514 l 24 579 m 261 829 q 238 767 261 792 q 176 742 215 742 q 116 759 138 742 q 94 809 94 776 q 121 867 94 842 q 190 892 147 892 q 261 829 261 892 z "},"j":{"ha":385,"x_min":-193,"x_max":296,"o":"m 72 571 l 79 664 l 275 667 q 278 197 278 276 q -26 -296 278 -296 q -193 -258 -111 -296 l -143 -143 q -11 -183 -71 -183 q 119 -102 75 -183 q 164 118 163 -21 q 158 571 164 410 l 72 571 m 296 829 q 273 767 296 792 q 211 742 250 742 q 151 759 172 742 q 129 809 129 776 q 156 867 129 842 q 225 892 182 892 q 296 829 296 892 z "},"k":{"ha":650,"x_min":-6,"x_max":622,"o":"m 222 442 l 222 386 q 399 481 325 399 q 496 672 474 563 l 593 650 q 593 638 593 643 q 540 494 593 574 q 400 357 488 414 l 622 11 l 489 -17 l 294 306 q 221 289 260 293 l 218 1 l 106 -7 l 103 386 q 96 908 103 575 l 38 903 l 4 899 l 0 900 l -6 1007 l 233 1013 q 222 442 222 533 z "},"l":{"ha":326,"x_min":6,"x_max":239,"o":"m 10 899 l 6 1001 l 239 1013 q 226 383 226 475 l 224 1 l 113 -7 l 113 386 q 106 913 113 583 l 10 899 z "},"m":{"ha":1113,"x_min":85,"x_max":1042,"o":"m 510 -7 l 515 274 q 435 560 515 560 q 313 499 378 560 q 224 349 247 439 q 208 139 208 290 l 214 1 l 90 -7 q 93 413 93 333 l 85 650 l 182 658 l 214 521 l 219 521 q 234 537 225 526 q 272 572 243 547 q 328 617 300 597 q 469 668 404 668 q 567 629 533 668 q 617 518 600 590 l 624 515 q 900 668 746 668 q 1003 606 968 668 q 1038 436 1038 543 l 1038 297 q 1042 -3 1038 68 l 921 -11 q 926 383 926 256 q 853 549 926 549 q 705 464 779 549 q 631 300 631 379 l 628 1 l 510 -7 z "},"n":{"ha":694,"x_min":68,"x_max":619,"o":"m 192 489 q 451 668 335 668 q 615 438 615 668 l 615 301 q 619 1 615 72 l 499 -7 q 504 362 504 260 q 488 508 504 464 q 420 553 471 553 q 301 486 369 553 q 214 344 233 419 q 194 139 194 269 l 201 1 l 78 -7 q 75 413 75 333 l 68 646 l 161 650 l 182 490 l 192 489 z "},"o":{"ha":642,"x_min":46,"x_max":599,"o":"m 347 664 q 599 347 599 664 q 519 90 599 190 q 310 -10 440 -10 q 113 77 181 -10 q 46 310 46 164 q 78 472 46 393 q 181 607 110 550 q 347 664 253 664 m 156 331 q 156 281 156 331 q 197 161 156 232 q 315 90 239 90 q 435 152 390 90 q 481 328 481 214 q 338 567 481 567 q 202 498 249 567 q 156 331 156 429 z "},"p":{"ha":678,"x_min":60,"x_max":633,"o":"m 71 253 l 63 635 l 151 651 l 171 549 l 183 546 q 244 604 221 585 q 309 641 267 624 q 403 658 351 658 q 574 584 514 658 q 633 407 633 510 q 598 215 633 304 q 490 63 563 126 q 331 0 418 0 q 181 54 244 0 l 189 -308 l 60 -318 q 71 253 71 140 m 172 315 q 172 264 172 315 q 217 160 172 213 q 337 107 261 107 q 463 192 413 107 q 513 365 513 278 q 477 503 513 453 q 365 554 442 554 q 230 485 288 554 q 172 315 172 417 z "},"q":{"ha":739,"x_min":58,"x_max":722,"o":"m 294 -7 q 119 69 179 -7 q 58 249 58 144 q 94 444 58 354 q 204 597 131 533 q 373 660 278 660 q 549 576 468 660 l 561 578 l 569 679 l 654 676 q 645 224 650 519 q 638 -194 640 -71 l 722 -187 l 717 -294 l 515 -310 l 531 103 l 524 108 q 420 22 471 51 q 294 -7 369 -7 m 526 347 q 526 394 526 347 q 484 499 526 440 q 363 557 442 557 q 235 472 283 557 q 186 286 186 388 q 339 107 186 107 q 474 181 421 107 q 526 347 526 254 z "},"r":{"ha":515,"x_min":88,"x_max":515,"o":"m 88 651 l 188 663 l 200 531 l 208 532 q 401 671 282 671 q 515 636 457 671 l 467 529 q 370 561 417 561 q 288 520 324 561 q 231 409 251 479 q 211 244 211 339 q 218 0 211 150 l 89 -6 q 92 367 92 219 l 88 651 z "},"s":{"ha":582,"x_min":29,"x_max":543,"o":"m 93 185 q 197 117 132 144 q 317 90 261 90 q 402 118 372 90 q 432 180 432 146 q 393 231 432 214 q 299 259 354 249 q 190 286 244 269 q 96 343 135 303 q 57 449 57 383 q 126 608 57 549 q 290 668 194 668 q 538 586 436 668 l 486 493 q 392 546 453 522 q 276 569 331 569 q 189 541 222 569 q 156 460 156 513 q 195 409 156 428 q 292 378 235 390 q 406 350 349 367 q 503 294 464 333 q 543 194 543 256 q 477 52 543 107 q 322 -3 411 -3 q 155 26 232 -3 q 29 100 78 54 q 93 185 46 119 z "},"t":{"ha":572,"x_min":13,"x_max":565,"o":"m 438 681 l 410 574 l 246 568 q 235 344 235 408 q 236 254 235 281 q 245 195 238 228 q 265 142 253 163 q 358 94 294 94 q 476 176 440 94 l 565 133 q 482 28 533 65 q 339 -10 431 -10 q 122 301 122 -10 l 131 558 l 13 556 l 22 611 l 138 660 l 176 850 l 271 850 l 250 664 l 438 681 z "},"u":{"ha":697,"x_min":63,"x_max":638,"o":"m 65 224 l 68 464 l 63 660 l 192 668 q 186 274 186 401 q 296 108 186 108 q 408 155 353 108 q 475 282 463 201 q 493 522 493 401 l 486 660 l 607 668 q 613 275 613 328 q 631 47 613 199 l 638 -4 l 526 -11 l 504 125 l 496 128 q 336 8 432 42 q 256 -7 296 -7 q 116 60 167 -7 q 65 224 65 128 z "},"v":{"ha":667,"x_min":28,"x_max":639,"o":"m 514 667 l 639 646 q 408 1 635 633 l 285 -10 q 28 646 74 526 l 161 669 l 350 131 l 514 667 z "},"w":{"ha":1140,"x_min":32,"x_max":1101,"o":"m 508 649 l 622 651 l 786 114 l 971 669 l 1101 646 q 844 -10 1056 526 l 718 1 q 638 216 694 67 q 554 438 581 365 q 390 -10 490 274 l 267 1 q 155 306 236 86 q 32 646 74 526 l 163 667 l 331 131 l 508 649 z "},"x":{"ha":679,"x_min":28,"x_max":651,"o":"m 651 646 l 410 340 l 415 336 l 644 8 l 514 -12 l 349 260 q 149 -12 242 124 l 28 4 l 269 326 l 31 633 l 161 669 l 332 410 l 521 663 l 651 646 z "},"y":{"ha":681,"x_min":-40,"x_max":658,"o":"m 526 667 l 658 642 q 426 -7 460 103 q 376 -156 392 -117 q 331 -236 360 -194 q 158 -317 274 -317 q -40 -274 42 -317 l -6 -165 q 169 -214 79 -214 q 268 -169 231 -214 q 306 -69 306 -124 q 260 106 306 -14 l 40 640 l 176 672 l 368 125 l 526 667 z "},"z":{"ha":632,"x_min":56,"x_max":576,"o":"m 575 -1 l 360 1 q 68 -10 174 1 l 56 89 l 446 568 q 319 569 407 569 q 82 558 232 569 l 76 669 q 319 667 168 667 q 565 669 471 667 l 569 582 l 194 88 l 576 103 l 575 -1 z "},"{":{"ha":379,"x_min":64,"x_max":314,"o":"m 64 297 l 64 372 q 165 488 165 388 q 123 676 165 544 q 81 850 81 807 q 136 968 81 922 q 314 1015 192 1014 l 310 908 q 189 825 189 908 q 233 658 189 785 q 276 465 276 531 q 190 331 276 378 q 276 200 276 286 q 233 10 276 136 q 189 -156 189 -115 q 310 -239 189 -239 l 314 -346 q 137 -299 193 -346 q 81 -181 81 -253 q 123 -6 81 -137 q 165 182 165 125 q 64 297 165 282 z "},"|":{"ha":289,"x_min":90,"x_max":197,"o":"m 90 1015 l 197 1022 l 197 -347 l 97 -351 l 90 1015 z "},"}":{"ha":379,"x_min":60,"x_max":310,"o":"m 310 372 l 310 297 q 208 182 208 282 q 251 -6 208 125 q 293 -181 293 -137 q 237 -299 293 -253 q 60 -346 181 -346 l 64 -239 q 185 -156 185 -239 q 141 10 185 -115 q 97 200 97 136 q 183 331 97 286 q 97 465 97 378 q 141 658 97 531 q 185 825 185 785 q 64 908 185 908 l 60 1015 q 238 968 182 1014 q 293 850 293 922 q 251 676 293 807 q 208 488 208 544 q 310 372 208 388 z "},"~":{"ha":535,"x_min":26,"x_max":504,"o":"m 118 782 l 26 824 q 181 938 96 938 q 272 914 215 938 q 349 890 328 890 q 417 947 390 890 l 504 899 q 385 783 458 783 q 286 815 351 783 q 193 846 221 846 q 118 782 144 846 z "}," ":{"ha":351,"x_min":0,"x_max":0,"o":""},"¡":{"ha":219,"x_min":31,"x_max":197,"o":"m 71 338 l 158 332 l 171 -372 l 42 -396 q 71 338 54 -214 m 31 471 q 53 533 31 508 q 115 558 76 558 q 176 541 154 558 q 197 491 197 524 q 171 433 197 458 q 101 408 144 408 q 31 471 31 408 z "},"¢":{"ha":590,"x_min":29,"x_max":564,"o":"m 279 -114 l 178 -94 l 196 10 q 71 120 113 40 q 29 308 29 200 q 106 549 29 449 q 311 661 183 649 l 333 782 l 424 772 l 404 657 q 540 607 460 647 l 481 518 q 388 556 442 542 l 311 82 q 413 106 364 83 q 485 153 463 129 l 507 175 l 564 104 q 458 27 528 61 q 297 -7 389 -7 l 279 -114 m 294 564 q 177 486 214 553 q 140 342 140 419 q 160 206 140 264 q 215 121 181 149 l 294 564 z "},"£":{"ha":786,"x_min":28,"x_max":689,"o":"m 507 425 l 335 428 q 336 372 336 410 q 250 113 336 200 l 251 104 l 689 118 l 683 -3 l 28 10 l 33 82 q 215 322 215 97 q 210 429 215 357 l 96 426 l 100 468 l 200 531 q 194 647 194 608 q 274 854 194 788 q 474 921 353 921 q 688 861 596 921 l 628 733 q 549 785 601 767 q 453 803 497 803 q 326 608 326 803 q 329 536 326 583 l 528 543 l 507 425 z "},"¤":{"ha":821,"x_min":40,"x_max":751,"o":"m 671 229 l 751 151 l 679 79 l 600 158 q 390 93 510 93 q 185 154 271 93 q 113 79 151 121 l 40 151 q 115 225 86 197 q 53 428 53 311 q 119 640 53 544 q 40 718 89 669 l 113 790 q 188 711 117 785 q 403 782 281 782 q 611 718 525 782 q 679 790 656 764 l 751 718 l 681 647 q 742 444 742 563 q 671 229 742 325 m 372 179 q 575 256 506 179 q 644 438 644 332 q 583 619 644 543 q 418 694 522 694 q 214 617 283 694 q 144 435 144 540 q 206 255 144 331 q 372 179 267 179 z "},"¥":{"ha":764,"x_min":24,"x_max":758,"o":"m 626 324 l 472 328 l 475 251 l 644 254 l 631 163 q 479 165 542 165 l 486 0 l 343 0 l 349 165 l 168 163 q 193 256 188 256 q 351 251 256 251 l 354 328 l 171 325 l 185 417 q 324 414 260 414 l 24 846 l 126 921 l 422 476 l 651 931 l 758 882 l 496 414 l 649 417 q 626 324 632 324 z "},"¦":{"ha":289,"x_min":90,"x_max":197,"o":"m 97 -351 l 93 253 l 197 253 l 197 -347 l 97 -351 m 90 1015 l 197 1022 l 197 419 l 93 419 l 90 1015 z "},"§":{"ha":510,"x_min":21,"x_max":494,"o":"m 286 728 q 267 667 267 706 q 290 588 267 628 q 347 518 314 549 q 414 456 381 488 q 494 282 494 381 q 360 53 494 119 q 369 -12 369 18 q 278 -222 369 -144 q 51 -307 188 -300 l 26 -178 q 154 -158 103 -178 q 251 -51 251 -122 q 169 93 251 17 q 102 162 136 125 q 44 255 68 199 q 21 379 21 311 q 158 578 21 526 q 146 674 146 619 q 166 773 146 729 q 216 842 186 817 q 283 885 246 868 q 417 913 347 913 l 444 786 q 286 728 335 786 m 139 382 q 160 294 139 331 q 238 206 182 257 q 304 143 293 156 q 379 242 379 176 q 324 360 379 304 l 268 415 q 214 475 235 449 q 139 382 139 447 z "},"¨":{"ha":449,"x_min":38,"x_max":411,"o":"m 338 740 q 323 740 338 740 q 292 761 308 740 q 275 816 275 782 q 299 872 275 850 q 353 893 324 893 q 397 875 382 893 q 411 824 411 857 q 390 765 411 790 q 338 740 368 740 m 98 740 q 84 740 98 740 q 53 760 69 740 q 38 816 38 781 q 60 872 38 851 q 114 893 82 893 q 174 829 174 893 q 150 766 174 792 q 98 740 126 740 z "},"©":{"ha":924,"x_min":28,"x_max":897,"o":"m 463 917 q 897 460 897 917 q 783 113 897 242 q 485 -17 669 -17 q 165 108 301 -17 q 28 415 28 233 q 132 758 28 610 q 269 874 183 831 q 463 917 354 917 m 640 640 l 700 742 q 501 797 593 797 q 275 694 361 797 q 189 447 189 592 q 257 215 189 303 q 460 128 325 128 q 619 161 551 128 q 724 239 688 194 l 667 310 q 643 290 658 301 q 577 258 628 278 q 474 238 526 238 q 356 306 403 238 q 310 466 310 375 q 353 622 310 557 q 488 688 396 688 q 565 676 526 688 q 622 653 603 664 l 640 640 z "},"ª":{"ha":435,"x_min":56,"x_max":379,"o":"m 170 506 q 148 506 170 506 q 91 538 126 506 q 56 626 56 571 q 95 715 56 681 q 188 750 135 750 q 281 715 242 750 l 281 739 q 258 811 281 786 q 191 836 235 836 q 108 790 147 836 l 65 857 q 202 918 124 918 q 330 878 281 918 q 379 761 379 838 l 379 511 l 294 511 l 290 549 l 289 550 q 245 519 276 533 q 170 506 214 506 m 281 629 q 259 672 279 657 q 210 686 239 686 q 165 669 182 686 q 149 628 149 651 q 165 587 149 604 q 210 569 182 569 q 259 585 239 569 q 281 629 279 600 z "},"«":{"ha":682,"x_min":69,"x_max":613,"o":"m 274 129 l 69 357 l 274 585 l 356 514 l 188 358 l 356 200 l 274 129 m 531 129 l 326 357 l 531 585 l 613 514 l 444 358 l 613 200 l 531 129 z "},"¬":{"ha":843,"x_min":69,"x_max":774,"o":"m 69 442 l 69 544 q 386 542 211 542 q 772 544 561 542 q 769 351 769 450 q 774 150 769 253 l 671 150 q 676 357 676 292 q 676 443 676 422 q 419 444 568 444 q 69 442 271 444 z "},"­":{"ha":435,"x_min":42,"x_max":393,"o":"m 58 483 q 210 481 129 481 l 393 483 q 350 376 356 376 q 228 381 267 381 l 42 378 l 58 483 z "},"®":{"ha":1008,"x_min":69,"x_max":939,"o":"m 504 918 q 939 461 939 918 q 825 114 939 243 q 527 -15 711 -15 q 206 110 343 -15 q 69 417 69 235 q 174 758 69 611 q 310 875 225 832 q 504 918 396 918 m 504 801 q 333 786 468 801 l 344 132 l 464 146 l 457 389 l 539 390 l 664 121 l 786 163 l 643 429 q 767 611 758 483 q 767 619 767 615 q 701 743 767 685 q 504 801 635 801 m 440 483 l 440 708 q 525 721 474 721 q 617 688 576 721 q 657 599 657 654 q 603 513 657 544 q 499 482 550 482 q 440 483 449 482 z "},"¯":{"ha":438,"x_min":42,"x_max":393,"o":"m 58 900 q 210 897 129 897 l 393 900 q 350 796 356 796 q 228 800 267 800 l 42 797 l 58 900 z "},"°":{"ha":507,"x_min":69,"x_max":438,"o":"m 69 728 q 69 766 69 728 q 122 860 69 803 q 262 917 174 917 q 394 869 350 917 q 438 746 438 821 q 390 610 438 671 q 256 550 342 550 q 120 602 171 550 q 69 728 69 654 m 249 640 q 343 734 343 640 q 267 828 343 828 q 191 800 218 828 q 164 734 164 772 q 188 668 164 696 q 249 640 211 640 z "},"±":{"ha":838,"x_min":69,"x_max":772,"o":"m 72 -3 l 72 100 q 422 97 247 97 l 772 100 l 772 -3 q 422 0 597 0 l 72 -3 m 69 499 l 69 601 q 371 599 169 599 q 368 900 371 694 l 471 900 q 468 599 468 797 q 769 601 668 599 l 769 499 q 468 501 567 501 q 471 200 468 299 l 368 200 q 371 501 371 397 q 69 499 269 501 z "},"²":{"ha":465,"x_min":69,"x_max":396,"o":"m 196 460 l 394 471 l 396 369 l 78 371 l 83 444 q 286 744 286 656 q 265 803 286 783 q 214 824 244 824 q 156 808 183 824 q 113 765 128 792 l 69 860 q 216 917 138 917 q 341 878 294 917 q 388 764 388 839 q 366 686 388 729 q 321 612 344 643 q 255 531 297 581 q 196 460 213 482 z "},"³":{"ha":471,"x_min":69,"x_max":401,"o":"m 90 879 q 214 918 138 918 q 337 881 290 918 q 383 794 383 844 q 294 678 383 725 q 373 626 344 664 q 401 547 401 589 q 347 422 401 476 q 197 367 292 367 q 69 404 129 367 l 121 476 q 198 444 150 444 q 269 468 246 444 q 293 533 293 492 q 263 604 293 575 q 176 633 232 633 q 153 632 161 633 l 164 701 q 250 724 219 701 q 281 779 281 746 q 215 833 281 833 q 119 796 149 833 l 90 879 z "},"´":{"ha":275,"x_min":14,"x_max":268,"o":"m 14 765 l 154 963 l 268 914 l 90 717 l 14 765 z "},"µ":{"ha":697,"x_min":56,"x_max":631,"o":"m 58 228 q 61 464 58 228 l 56 660 l 185 668 q 179 274 179 401 q 289 108 179 108 q 401 155 346 108 q 468 282 456 201 q 486 522 486 401 l 479 660 l 600 668 q 606 275 606 328 q 625 47 606 199 l 631 -4 l 519 -11 l 497 125 l 489 128 q 385 35 442 72 q 268 -3 328 -3 q 164 47 208 -3 q 208 -319 172 -186 l 69 -347 q 58 228 58 -139 z "},"¶":{"ha":872,"x_min":44,"x_max":735,"o":"m 338 -7 l 338 350 q 120 426 196 350 q 44 614 44 503 q 127 812 44 725 q 351 899 210 899 q 733 908 493 899 l 735 797 q 668 800 690 800 l 656 4 l 550 0 l 542 804 q 497 806 519 806 l 454 804 l 451 3 l 338 -7 z "},"·":{"ha":235,"x_min":33,"x_max":200,"o":"m 200 386 q 177 324 200 349 q 115 299 154 299 q 55 316 76 299 q 33 366 33 333 q 60 424 33 399 q 129 449 86 449 q 200 386 200 449 z "},"¸":{"ha":429,"x_min":69,"x_max":364,"o":"m 140 -119 l 160 -1 l 242 -1 l 225 -75 q 242 -74 231 -74 q 326 -106 289 -74 q 364 -190 364 -139 q 311 -293 364 -261 q 190 -325 258 -325 q 69 -304 122 -325 l 99 -221 q 185 -254 129 -254 q 257 -189 257 -254 q 181 -126 257 -126 q 151 -131 167 -126 l 140 -119 z "},"¹":{"ha":350,"x_min":69,"x_max":281,"o":"m 101 710 l 69 758 l 197 897 l 272 904 l 272 754 q 274 574 272 597 l 281 369 l 169 369 l 176 589 q 178 688 178 632 l 178 764 l 101 710 z "},"º":{"ha":478,"x_min":69,"x_max":408,"o":"m 254 918 q 408 724 408 918 q 360 567 408 628 q 232 506 311 506 q 111 558 153 506 q 69 697 69 611 q 119 850 69 782 q 254 918 168 918 m 160 713 q 160 685 160 713 q 179 620 160 658 q 235 582 199 582 q 292 615 271 582 q 314 710 314 649 q 247 840 314 840 q 181 803 203 840 q 160 713 160 767 z "},"»":{"ha":682,"x_min":69,"x_max":613,"o":"m 613 357 l 408 129 l 326 200 l 494 358 l 326 514 l 408 585 l 613 357 m 356 357 l 151 129 l 69 200 l 238 358 l 69 514 l 151 585 l 356 357 z "},"¼":{"ha":1083,"x_min":110,"x_max":967,"o":"m 733 925 l 828 875 l 264 -25 l 176 24 l 733 925 m 674 222 l 813 224 l 807 413 l 896 410 l 901 225 l 960 226 l 967 135 l 904 135 l 908 0 l 811 0 l 811 136 l 768 136 q 588 129 649 136 l 579 201 l 740 549 l 831 517 l 674 222 m 142 710 l 110 758 l 238 897 l 313 904 l 313 754 q 314 574 313 597 l 321 369 l 210 369 l 217 589 q 218 688 218 632 l 218 764 l 142 710 z "},"½":{"ha":1083,"x_min":94,"x_max":967,"o":"m 718 925 l 813 875 l 249 -25 l 161 24 l 718 925 m 767 90 l 965 101 l 967 0 l 649 1 l 654 75 q 857 375 857 286 q 836 434 857 414 q 785 454 815 454 q 726 438 754 454 q 683 396 699 422 l 640 490 q 787 547 708 547 q 912 508 865 547 q 958 394 958 469 q 937 317 958 360 q 892 242 915 274 q 826 162 868 211 q 767 90 783 113 m 126 710 l 94 758 l 222 897 l 297 904 l 297 754 q 299 574 297 597 l 306 369 l 194 369 l 201 589 q 203 688 203 632 l 203 764 l 126 710 z "},"¾":{"ha":1083,"x_min":68,"x_max":993,"o":"m 760 925 l 854 875 l 290 -25 l 203 24 l 760 925 m 700 222 l 839 224 l 833 413 l 922 410 l 928 225 l 986 226 l 993 135 l 931 135 l 935 0 l 838 0 l 838 136 l 794 136 q 614 129 675 136 l 606 201 l 767 549 l 857 517 l 700 222 m 118 796 l 89 879 q 213 918 136 918 q 335 881 289 918 q 382 794 382 844 q 293 678 382 725 q 372 626 343 664 q 400 547 400 589 q 345 422 400 476 q 196 367 290 367 q 68 404 128 367 l 119 476 q 197 444 149 444 q 268 468 244 444 q 292 533 292 492 q 261 604 292 575 q 175 633 231 633 q 151 632 160 633 l 163 701 q 249 724 218 701 q 279 779 279 746 q 213 833 279 833 q 118 796 147 833 z "},"¿":{"ha":474,"x_min":0,"x_max":460,"o":"m 408 -187 l 460 -271 q 282 -344 392 -344 q 86 -274 172 -344 q 0 -91 0 -203 q 74 89 0 21 q 249 179 147 157 l 257 399 l 347 393 l 344 103 q 183 39 244 100 q 122 -94 122 -22 q 172 -204 122 -165 q 292 -243 221 -243 q 408 -187 363 -243 m 217 532 q 240 594 217 569 q 301 619 263 619 q 362 602 340 619 q 383 552 383 585 q 357 494 383 519 q 288 469 331 469 q 217 532 217 469 z "},"À":{"ha":656,"x_min":14,"x_max":639,"o":"m 443 238 l 189 243 l 132 -14 l 14 10 l 240 892 l 350 900 l 639 1 l 519 -25 l 443 238 m 208 328 l 418 322 l 299 733 l 208 328 m 244 1197 l 385 1000 l 308 951 l 131 1149 l 244 1197 z "},"Á":{"ha":656,"x_min":14,"x_max":639,"o":"m 443 238 l 189 243 l 132 -14 l 14 10 l 240 892 l 350 900 l 639 1 l 519 -25 l 443 238 m 208 328 l 418 322 l 299 733 l 208 328 m 222 1001 l 363 1199 l 476 1150 l 299 953 l 222 1001 z "},"Â":{"ha":656,"x_min":14,"x_max":639,"o":"m 443 238 l 189 243 l 132 -14 l 14 10 l 240 892 l 350 900 l 639 1 l 519 -25 l 443 238 m 390 951 l 308 1096 l 225 951 l 111 1000 l 293 1197 l 324 1197 l 504 1000 l 390 951 m 208 328 l 418 322 l 299 733 l 208 328 z "},"Ã":{"ha":656,"x_min":14,"x_max":639,"o":"m 443 238 l 189 243 l 132 -14 l 14 10 l 240 892 l 350 900 l 639 1 l 519 -25 l 443 238 m 150 949 l 58 990 q 213 1104 128 1104 q 303 1081 247 1104 q 381 1057 360 1057 q 449 1114 422 1057 l 536 1065 q 417 950 490 950 q 318 981 383 950 q 225 1013 253 1013 q 150 949 176 1013 m 208 328 l 418 322 l 299 733 l 208 328 z "},"Ä":{"ha":656,"x_min":14,"x_max":639,"o":"m 443 238 l 189 243 l 132 -14 l 14 10 l 240 892 l 350 900 l 639 1 l 519 -25 l 443 238 m 208 328 l 418 322 l 299 733 l 208 328 m 415 976 q 400 976 415 976 q 368 997 385 976 q 351 1052 351 1018 q 376 1108 351 1086 q 429 1129 400 1129 q 473 1111 458 1129 q 488 1060 488 1093 q 466 1001 488 1026 q 415 976 444 976 m 174 976 q 160 976 174 976 q 130 997 146 976 q 114 1052 114 1017 q 136 1108 114 1088 q 189 1129 158 1129 q 250 1065 250 1129 q 226 1002 250 1028 q 174 976 203 976 z "},"Å":{"ha":656,"x_min":14,"x_max":639,"o":"m 163 1023 q 163 1048 163 1023 q 201 1116 163 1072 q 304 1160 239 1160 q 401 1123 369 1160 q 433 1037 433 1086 q 413 948 433 988 q 353 892 392 908 l 639 1 l 519 -25 l 443 238 l 189 243 l 132 -14 l 14 10 l 240 892 q 183 940 204 907 q 163 1023 163 974 m 208 328 l 418 322 l 299 733 l 208 328 m 294 956 q 356 1019 356 956 q 306 1083 356 1083 q 256 1065 274 1083 q 239 1019 239 1046 q 254 974 239 993 q 294 956 269 956 z "},"Æ":{"ha":992,"x_min":-17,"x_max":950,"o":"m 532 4 l 528 289 l 238 254 l 93 -17 l -17 15 l 472 889 l 935 906 l 940 786 l 638 785 l 646 408 l 871 436 l 874 335 l 644 310 l 647 110 l 950 107 l 950 -11 l 532 4 m 518 779 l 288 356 l 526 383 l 518 779 z "},"Ç":{"ha":669,"x_min":42,"x_max":642,"o":"m 310 -119 l 326 -14 q 42 443 42 26 q 122 764 42 635 q 235 867 163 829 q 407 904 308 904 q 619 814 549 904 l 525 728 q 396 792 481 792 q 289 762 335 792 q 217 683 243 732 q 165 449 165 589 q 224 201 165 308 q 407 94 282 94 q 542 182 501 94 l 642 150 q 503 0 596 35 q 407 -18 461 -15 l 394 -75 q 411 -74 400 -74 q 496 -106 458 -74 q 533 -190 533 -139 q 481 -293 533 -261 q 360 -325 428 -325 q 239 -304 292 -325 l 268 -221 q 354 -254 299 -254 q 426 -189 426 -254 q 350 -126 426 -126 q 321 -131 336 -126 l 310 -119 z "},"È":{"ha":533,"x_min":58,"x_max":492,"o":"m 58 889 l 479 911 l 485 788 l 182 789 l 188 522 l 431 526 l 429 404 l 192 410 l 192 114 l 492 122 l 492 -4 l 75 1 l 58 889 m 176 1197 l 317 1000 l 240 951 l 63 1149 l 176 1197 z "},"É":{"ha":533,"x_min":58,"x_max":492,"o":"m 58 889 l 479 911 l 485 788 l 182 789 l 188 522 l 431 526 l 429 404 l 192 410 l 192 114 l 492 122 l 492 -4 l 75 1 l 58 889 m 206 1001 l 346 1199 l 460 1150 l 282 953 l 206 1001 z "},"Ê":{"ha":533,"x_min":58,"x_max":492,"o":"m 58 889 l 479 911 l 485 788 l 182 789 l 188 522 l 431 526 l 429 404 l 192 410 l 192 114 l 492 122 l 492 -4 l 75 1 l 58 889 m 375 951 l 293 1096 l 210 951 l 96 1000 l 278 1197 l 308 1197 l 489 1000 l 375 951 z "},"Ë":{"ha":533,"x_min":58,"x_max":492,"o":"m 58 889 l 479 911 l 485 788 l 182 789 l 188 522 l 431 526 l 429 404 l 192 410 l 192 114 l 492 122 l 492 -4 l 75 1 l 58 889 m 406 975 q 391 975 406 975 q 360 996 376 975 q 343 1051 343 1017 q 367 1106 343 1085 q 421 1128 392 1128 q 465 1110 450 1128 q 479 1058 479 1092 q 458 1000 479 1025 q 406 975 436 975 m 166 975 q 152 975 166 975 q 122 995 138 975 q 106 1051 106 1015 q 128 1107 106 1086 q 181 1128 150 1128 q 242 1064 242 1128 q 218 1001 242 1026 q 166 975 194 975 z "},"Ì":{"ha":289,"x_min":-44,"x_max":215,"o":"m 79 899 l 215 906 l 200 4 l 88 0 l 79 899 m 69 1197 l 210 1000 l 133 951 l -44 1149 l 69 1197 z "},"Í":{"ha":289,"x_min":64,"x_max":318,"o":"m 79 899 l 215 906 l 200 4 l 88 0 l 79 899 m 64 1001 l 204 1199 l 318 1150 l 140 953 l 64 1001 z "},"Î":{"ha":289,"x_min":-39,"x_max":354,"o":"m 79 899 l 215 906 l 200 4 l 88 0 l 79 899 m 240 951 l 158 1096 l 75 951 l -39 1000 l 143 1197 l 174 1197 l 354 1000 l 240 951 z "},"Ï":{"ha":289,"x_min":-29,"x_max":344,"o":"m 79 899 l 215 906 l 200 4 l 88 0 l 79 899 m 272 975 q 257 975 272 975 q 225 996 242 975 q 208 1051 208 1017 q 233 1106 208 1085 q 286 1128 257 1128 q 330 1110 315 1128 q 344 1058 344 1092 q 323 1000 344 1025 q 272 975 301 975 m 31 975 q 17 975 31 975 q -13 995 3 975 q -29 1051 -29 1015 q -7 1107 -29 1086 q 47 1128 15 1128 q 107 1064 107 1128 q 83 1001 107 1026 q 31 975 60 975 z "},"Ð":{"ha":796,"x_min":4,"x_max":754,"o":"m 4 389 l 21 494 q 128 492 88 492 l 121 896 q 269 899 144 899 q 474 876 394 899 q 618 806 553 854 q 754 461 754 704 q 635 122 754 244 q 317 -1 517 -1 q 138 7 192 -1 l 131 392 l 4 389 m 365 388 l 251 390 l 254 93 q 511 167 408 93 q 625 447 625 246 q 531 728 625 647 q 247 810 436 810 l 250 492 l 408 494 q 365 388 371 388 z "},"Ñ":{"ha":732,"x_min":71,"x_max":663,"o":"m 213 -14 l 90 -8 l 71 890 l 203 897 l 536 267 l 526 913 l 663 903 l 639 -17 l 554 -14 l 183 661 l 213 -14 m 206 994 l 114 1036 q 268 1150 183 1150 q 359 1126 303 1150 q 436 1103 415 1103 q 504 1160 478 1103 l 592 1111 q 472 996 546 996 q 374 1027 439 996 q 281 1058 308 1058 q 206 994 232 1058 z "},"Ò":{"ha":763,"x_min":50,"x_max":714,"o":"m 50 454 q 150 780 50 660 q 384 900 250 900 q 616 789 518 900 q 714 472 714 678 q 642 142 714 282 q 538 29 604 71 q 375 -12 472 -12 q 200 57 278 -12 q 50 454 50 189 m 364 796 q 231 701 289 796 q 172 451 172 607 q 235 196 172 296 q 390 96 299 96 q 590 492 590 96 q 526 715 590 635 q 364 796 463 796 m 315 1197 l 456 1000 l 379 951 l 201 1149 l 315 1197 z "},"Ó":{"ha":763,"x_min":50,"x_max":714,"o":"m 50 454 q 150 780 50 660 q 384 900 250 900 q 616 789 518 900 q 714 472 714 678 q 642 142 714 282 q 538 29 604 71 q 375 -12 472 -12 q 200 57 278 -12 q 50 454 50 189 m 364 796 q 231 701 289 796 q 172 451 172 607 q 235 196 172 296 q 390 96 299 96 q 590 492 590 96 q 526 715 590 635 q 364 796 463 796 m 288 1010 l 428 1207 l 542 1158 l 364 961 l 288 1010 z "},"Ô":{"ha":763,"x_min":50,"x_max":714,"o":"m 50 454 q 150 780 50 660 q 384 900 250 900 q 616 789 518 900 q 714 472 714 678 q 642 142 714 282 q 538 29 604 71 q 375 -12 472 -12 q 200 57 278 -12 q 50 454 50 189 m 364 796 q 231 701 289 796 q 172 451 172 607 q 235 196 172 296 q 390 96 299 96 q 590 492 590 96 q 526 715 590 635 q 364 796 463 796 m 469 951 l 388 1096 l 304 951 l 190 1000 l 372 1197 l 403 1197 l 583 1000 l 469 951 z "},"Õ":{"ha":763,"x_min":50,"x_max":714,"o":"m 50 454 q 150 780 50 660 q 384 900 250 900 q 616 789 518 900 q 714 472 714 678 q 642 142 714 282 q 538 29 604 71 q 375 -12 472 -12 q 200 57 278 -12 q 50 454 50 189 m 364 796 q 231 701 289 796 q 172 451 172 607 q 235 196 172 296 q 390 96 299 96 q 590 492 590 96 q 526 715 590 635 q 364 796 463 796 m 240 976 l 149 1018 q 303 1132 218 1132 q 394 1108 338 1132 q 471 1085 450 1085 q 539 1142 513 1085 l 626 1093 q 507 978 581 978 q 408 1009 474 978 q 315 1040 343 1040 q 240 976 267 1040 z "},"Ö":{"ha":763,"x_min":50,"x_max":714,"o":"m 50 454 q 150 780 50 660 q 384 900 250 900 q 616 789 518 900 q 714 472 714 678 q 642 142 714 282 q 538 29 604 71 q 375 -12 472 -12 q 200 57 278 -12 q 50 454 50 189 m 364 796 q 231 701 289 796 q 172 451 172 607 q 235 196 172 296 q 390 96 299 96 q 590 492 590 96 q 526 715 590 635 q 364 796 463 796 m 502 969 q 487 969 502 969 q 456 990 472 969 q 439 1045 439 1011 q 463 1101 439 1079 q 517 1122 488 1122 q 560 1104 546 1122 q 575 1053 575 1086 q 553 994 575 1019 q 502 969 532 969 m 262 969 q 248 969 262 969 q 217 990 233 969 q 201 1045 201 1010 q 224 1101 201 1081 q 278 1122 246 1122 q 338 1058 338 1122 q 314 995 338 1021 q 262 969 290 969 z "},"×":{"ha":761,"x_min":97,"x_max":664,"o":"m 592 157 q 381 372 500 253 q 169 157 378 369 l 97 229 q 313 440 169 297 l 97 651 l 169 724 q 381 508 275 614 q 592 724 522 650 l 664 651 l 449 440 q 664 229 568 321 l 592 157 z "},"Ø":{"ha":761,"x_min":49,"x_max":713,"o":"m 67 -90 l 154 100 q 49 447 49 235 q 149 780 49 660 q 382 900 249 900 q 510 871 450 900 l 557 972 l 661 958 l 593 811 q 713 472 713 694 q 639 142 713 282 q 537 29 603 71 q 384 -12 471 -12 q 232 29 297 -12 l 168 -111 l 67 -90 m 282 138 q 390 96 329 96 q 501 151 451 96 q 576 290 551 207 q 600 465 600 374 q 539 693 600 611 l 282 138 m 363 796 q 229 701 288 796 q 171 466 171 607 q 215 232 171 325 l 463 769 q 363 796 417 796 z "},"Ù":{"ha":728,"x_min":56,"x_max":672,"o":"m 660 913 l 672 536 q 578 103 672 229 q 477 22 540 53 q 341 -8 414 -8 q 222 14 268 -8 q 147 82 176 36 q 99 180 118 128 q 69 308 79 232 q 56 608 56 432 l 56 890 l 183 906 q 181 636 181 742 q 187 440 181 531 q 211 269 193 350 q 354 111 247 111 q 499 222 451 111 q 546 567 546 332 q 531 901 546 706 l 660 913 m 304 1197 l 444 1000 l 368 951 l 190 1149 l 304 1197 z "},"Ú":{"ha":728,"x_min":56,"x_max":672,"o":"m 660 913 l 672 536 q 578 103 672 229 q 477 22 540 53 q 341 -8 414 -8 q 222 14 268 -8 q 147 82 176 36 q 99 180 118 128 q 69 308 79 232 q 56 608 56 432 l 56 890 l 183 906 q 181 636 181 742 q 187 440 181 531 q 211 269 193 350 q 354 111 247 111 q 499 222 451 111 q 546 567 546 332 q 531 901 546 706 l 660 913 m 297 1001 l 438 1199 l 551 1150 l 374 953 l 297 1001 z "},"Û":{"ha":728,"x_min":56,"x_max":672,"o":"m 660 913 l 672 536 q 578 103 672 229 q 477 22 540 53 q 341 -8 414 -8 q 222 14 268 -8 q 147 82 176 36 q 99 180 118 128 q 69 308 79 232 q 56 608 56 432 l 56 890 l 183 906 q 181 636 181 742 q 187 440 181 531 q 211 269 193 350 q 354 111 247 111 q 499 222 451 111 q 546 567 546 332 q 531 901 546 706 l 660 913 m 443 951 l 361 1096 l 278 951 l 164 1000 l 346 1197 l 376 1197 l 557 1000 l 443 951 z "},"Ü":{"ha":728,"x_min":56,"x_max":672,"o":"m 660 913 l 672 536 q 578 103 672 229 q 477 22 540 53 q 341 -8 414 -8 q 222 14 268 -8 q 147 82 176 36 q 99 180 118 128 q 69 308 79 232 q 56 608 56 432 l 56 890 l 183 906 q 181 636 181 742 q 187 440 181 531 q 211 269 193 350 q 354 111 247 111 q 499 222 451 111 q 546 567 546 332 q 531 901 546 706 l 660 913 m 484 963 q 469 963 484 963 q 438 983 454 963 q 421 1038 421 1004 q 445 1094 421 1072 q 499 1115 469 1115 q 542 1097 528 1115 q 557 1046 557 1079 q 535 988 557 1013 q 484 963 514 963 m 244 963 q 230 963 244 963 q 199 983 215 963 q 183 1038 183 1003 q 206 1094 183 1074 q 258 1115 228 1115 q 319 1051 319 1115 q 296 988 319 1014 q 244 963 272 963 z "},"Ý":{"ha":782,"x_min":24,"x_max":758,"o":"m 471 369 l 486 0 l 343 0 l 356 369 l 24 846 l 126 921 l 422 476 l 651 931 l 758 882 l 471 369 m 318 1000 l 458 1197 l 572 1149 l 394 951 l 318 1000 z "},"Þ":{"ha":600,"x_min":72,"x_max":574,"o":"m 238 154 l 193 154 l 193 4 l 81 0 l 72 908 l 208 915 l 206 756 q 269 763 243 763 q 492 674 411 763 q 574 460 574 585 q 474 245 574 336 q 238 154 375 154 m 436 353 q 458 449 458 392 q 437 550 458 506 q 381 618 415 594 q 232 664 311 664 q 204 663 214 664 l 197 247 q 436 353 389 267 z "},"ß":{"ha":835,"x_min":24,"x_max":806,"o":"m 106 -7 l 111 535 l 25 532 l 24 576 l 122 633 q 206 872 133 779 q 403 964 279 964 q 595 904 526 964 q 664 747 664 844 q 638 663 664 699 q 576 606 613 628 q 503 567 540 585 q 417 465 417 522 q 554 369 417 396 q 668 344 611 358 q 765 292 725 329 q 806 194 806 256 q 740 52 806 107 q 584 -3 674 -3 q 417 26 494 -3 q 292 100 340 54 q 356 185 308 119 q 459 117 394 144 q 579 90 524 90 q 665 118 635 90 q 694 181 694 146 q 656 233 694 215 q 563 260 618 250 q 453 287 508 271 q 360 343 399 303 q 322 444 322 383 q 347 544 322 506 q 406 604 371 583 q 475 642 440 625 q 558 746 558 682 q 513 825 558 790 q 395 860 468 860 q 277 794 322 860 q 232 635 232 729 l 231 10 l 106 -7 z "},"à":{"ha":575,"x_min":42,"x_max":532,"o":"m 247 -11 q 99 42 157 -11 q 42 186 42 96 q 107 333 42 276 q 261 390 172 390 q 413 333 350 390 l 413 386 q 378 520 413 472 q 294 568 344 568 q 208 545 244 568 q 131 475 171 522 l 68 546 q 306 668 163 668 q 531 414 531 668 q 532 -1 531 160 l 433 -1 l 429 60 l 425 63 q 353 12 406 35 q 247 -11 301 -11 m 414 194 q 372 272 413 244 q 275 300 332 300 q 186 268 218 300 q 154 192 154 236 q 187 115 154 147 q 276 82 219 82 q 373 110 333 82 q 414 194 413 139 m 222 963 l 363 765 l 286 717 l 108 914 l 222 963 z "},"á":{"ha":575,"x_min":42,"x_max":532,"o":"m 247 -11 q 99 42 157 -11 q 42 186 42 96 q 107 333 42 276 q 261 390 172 390 q 413 333 350 390 l 413 386 q 378 520 413 472 q 294 568 344 568 q 208 545 244 568 q 131 475 171 522 l 68 546 q 306 668 163 668 q 531 414 531 668 q 532 -1 531 160 l 433 -1 l 429 60 l 425 63 q 353 12 406 35 q 247 -11 301 -11 m 414 194 q 372 272 413 244 q 275 300 332 300 q 186 268 218 300 q 154 192 154 236 q 187 115 154 147 q 276 82 219 82 q 373 110 333 82 q 414 194 413 139 m 253 765 l 393 963 l 507 914 l 329 717 l 253 765 z "},"â":{"ha":575,"x_min":42,"x_max":532,"o":"m 247 -11 q 99 42 157 -11 q 42 186 42 96 q 107 333 42 276 q 261 390 172 390 q 413 333 350 390 l 413 386 q 378 520 413 472 q 294 568 344 568 q 208 545 244 568 q 131 475 171 522 l 68 546 q 306 668 163 668 q 531 414 531 668 q 532 -1 531 160 l 433 -1 l 429 60 l 425 63 q 353 12 406 35 q 247 -11 301 -11 m 414 194 q 372 272 413 244 q 275 300 332 300 q 186 268 218 300 q 154 192 154 236 q 187 115 154 147 q 276 82 219 82 q 373 110 333 82 q 414 194 413 139 m 385 717 l 303 861 l 219 717 l 106 765 l 288 963 l 318 963 l 499 765 l 385 717 z "},"ã":{"ha":575,"x_min":42,"x_max":532,"o":"m 247 -11 q 99 42 157 -11 q 42 186 42 96 q 107 333 42 276 q 261 390 172 390 q 413 333 350 390 l 413 386 q 378 520 413 472 q 294 568 344 568 q 208 545 244 568 q 131 475 171 522 l 68 546 q 306 668 163 668 q 531 414 531 668 q 532 -1 531 160 l 433 -1 l 429 60 l 425 63 q 353 12 406 35 q 247 -11 301 -11 m 414 194 q 372 272 413 244 q 275 300 332 300 q 186 268 218 300 q 154 192 154 236 q 187 115 154 147 q 276 82 219 82 q 373 110 333 82 q 414 194 413 139 m 144 754 l 53 796 q 207 910 122 910 q 298 886 242 910 q 375 863 354 863 q 443 919 417 863 l 531 871 q 411 756 485 756 q 313 787 378 756 q 219 818 247 818 q 144 754 171 818 z "},"ä":{"ha":575,"x_min":42,"x_max":532,"o":"m 247 -11 q 99 42 157 -11 q 42 186 42 96 q 107 333 42 276 q 261 390 172 390 q 413 333 350 390 l 413 386 q 378 520 413 472 q 294 568 344 568 q 208 545 244 568 q 131 475 171 522 l 68 546 q 306 668 163 668 q 531 414 531 668 q 532 -1 531 160 l 433 -1 l 429 60 l 425 63 q 353 12 406 35 q 247 -11 301 -11 m 414 194 q 372 272 413 244 q 275 300 332 300 q 186 268 218 300 q 154 192 154 236 q 187 115 154 147 q 276 82 219 82 q 373 110 333 82 q 414 194 413 139 m 420 731 q 405 731 420 731 q 374 751 390 731 q 357 806 357 772 q 381 862 357 840 q 435 883 406 883 q 478 865 464 883 q 493 814 493 847 q 472 756 493 781 q 420 731 450 731 m 180 731 q 166 731 180 731 q 135 751 151 731 q 119 806 119 771 q 142 863 119 842 q 194 883 164 883 q 256 819 256 883 q 232 756 256 782 q 180 731 208 731 z "},"å":{"ha":575,"x_min":42,"x_max":532,"o":"m 247 -11 q 99 42 157 -11 q 42 186 42 96 q 107 333 42 276 q 261 390 172 390 q 413 333 350 390 l 413 386 q 378 520 413 472 q 294 568 344 568 q 208 545 244 568 q 131 475 171 522 l 68 546 q 306 668 163 668 q 531 414 531 668 q 532 -1 531 160 l 433 -1 l 429 60 l 425 63 q 353 12 406 35 q 247 -11 301 -11 m 414 194 q 372 272 413 244 q 275 300 332 300 q 186 268 218 300 q 154 192 154 236 q 187 115 154 147 q 276 82 219 82 q 373 110 333 82 q 414 194 413 139 m 188 859 q 188 887 188 859 q 226 959 188 915 q 329 1003 264 1003 q 426 966 394 1003 q 458 872 458 929 q 423 769 458 815 q 325 724 388 724 q 225 763 263 724 q 188 859 188 803 m 319 799 q 381 863 381 799 q 331 926 381 926 q 281 908 299 926 q 264 863 264 889 q 279 817 264 836 q 319 799 294 799 z "},"æ":{"ha":990,"x_min":42,"x_max":947,"o":"m 939 283 l 529 281 q 579 138 529 192 q 692 85 629 85 q 799 105 754 85 q 864 144 844 125 l 882 165 l 939 90 q 696 -7 858 -7 q 463 100 533 -7 q 247 -11 390 -11 q 99 42 157 -11 q 42 186 42 96 q 107 333 42 276 q 261 390 172 390 q 413 333 350 390 l 413 386 q 378 520 413 472 q 294 568 344 568 q 208 545 244 568 q 131 475 171 522 l 68 546 q 159 641 92 606 q 301 676 226 676 q 428 642 375 676 q 492 540 481 607 q 731 663 583 663 q 895 585 843 663 q 947 385 947 508 q 939 283 947 333 m 839 363 q 809 514 839 463 q 703 565 779 565 q 578 499 628 565 q 528 360 529 433 l 839 363 m 276 82 q 305 82 276 82 q 374 111 333 82 q 414 192 414 140 q 373 272 414 244 q 275 300 332 300 q 186 268 218 300 q 154 192 154 236 q 187 115 154 147 q 276 82 219 82 z "},"ç":{"ha":588,"x_min":44,"x_max":579,"o":"m 283 -119 l 301 -7 q 109 85 174 -1 q 44 315 44 172 q 131 560 44 457 q 357 663 217 663 q 556 607 449 663 l 496 518 q 422 551 471 536 q 335 565 372 565 q 198 497 240 565 q 156 331 156 429 q 201 157 156 233 q 321 81 247 81 q 435 109 376 81 q 522 175 494 138 l 579 104 q 385 -1 511 21 l 368 -75 q 385 -74 374 -74 q 469 -106 432 -74 q 507 -190 507 -139 q 454 -293 507 -261 q 333 -325 401 -325 q 213 -304 265 -325 l 242 -221 q 328 -254 272 -254 q 400 -189 400 -254 q 324 -126 400 -126 q 294 -131 308 -126 l 283 -119 z "},"è":{"ha":624,"x_min":44,"x_max":581,"o":"m 572 283 l 163 281 q 213 138 163 192 q 325 85 263 85 q 433 105 388 85 q 497 144 478 125 l 515 165 l 572 90 q 322 -7 492 -7 q 115 75 186 -7 q 44 301 44 157 q 134 553 44 444 q 364 663 224 663 q 528 585 476 663 q 581 385 581 508 q 572 283 581 333 m 472 363 q 442 514 472 463 q 337 565 413 565 q 212 499 261 565 q 161 360 163 433 l 472 363 m 268 963 l 408 765 l 332 717 l 154 914 l 268 963 z "},"é":{"ha":624,"x_min":44,"x_max":581,"o":"m 572 283 l 163 281 q 213 138 163 192 q 325 85 263 85 q 433 105 388 85 q 497 144 478 125 l 515 165 l 572 90 q 322 -7 492 -7 q 115 75 186 -7 q 44 301 44 157 q 134 553 44 444 q 364 663 224 663 q 528 585 476 663 q 581 385 581 508 q 572 283 581 333 m 472 363 q 442 514 472 463 q 337 565 413 565 q 212 499 261 565 q 161 360 163 433 l 472 363 m 238 765 l 378 963 l 492 914 l 314 717 l 238 765 z "},"ê":{"ha":624,"x_min":44,"x_max":581,"o":"m 572 283 l 163 281 q 213 138 163 192 q 325 85 263 85 q 433 105 388 85 q 497 144 478 125 l 515 165 l 572 90 q 322 -7 492 -7 q 115 75 186 -7 q 44 301 44 157 q 134 553 44 444 q 364 663 224 663 q 528 585 476 663 q 581 385 581 508 q 572 283 581 333 m 472 363 q 442 514 472 463 q 337 565 413 565 q 212 499 261 565 q 161 360 163 433 l 472 363 m 419 717 l 338 861 l 254 717 l 140 765 l 322 963 l 353 963 l 533 765 l 419 717 z "},"ë":{"ha":624,"x_min":44,"x_max":581,"o":"m 572 283 l 163 281 q 213 138 163 192 q 325 85 263 85 q 433 105 388 85 q 497 144 478 125 l 515 165 l 572 90 q 322 -7 492 -7 q 115 75 186 -7 q 44 301 44 157 q 134 553 44 444 q 364 663 224 663 q 528 585 476 663 q 581 385 581 508 q 572 283 581 333 m 472 363 q 442 514 472 463 q 337 565 413 565 q 212 499 261 565 q 161 360 163 433 l 472 363 m 473 740 q 458 740 473 740 q 426 761 443 740 q 410 816 410 782 q 434 872 410 850 q 488 893 458 893 q 531 875 517 893 q 546 824 546 857 q 524 765 546 790 q 473 740 503 740 m 233 740 q 218 740 233 740 q 188 760 204 740 q 172 816 172 781 q 194 872 172 851 q 247 893 217 893 q 308 829 308 893 q 285 766 308 792 q 233 740 261 740 z "},"ì":{"ha":311,"x_min":-42,"x_max":235,"o":"m 72 963 l 213 765 l 136 717 l -42 914 l 72 963 m 24 579 l 28 671 l 235 671 l 235 0 l 125 -6 q 119 322 125 129 q 113 582 114 514 l 24 579 z "},"í":{"ha":308,"x_min":29,"x_max":336,"o":"m 82 765 l 222 963 l 336 914 l 158 717 l 82 765 m 29 576 l 29 669 l 235 665 l 231 0 l 126 -6 q 121 318 126 129 q 114 576 115 507 l 29 576 z "},"î":{"ha":311,"x_min":-29,"x_max":364,"o":"m 24 579 l 28 671 l 235 671 l 235 0 l 125 -6 q 119 322 125 129 q 113 582 114 514 l 24 579 m 250 717 l 168 861 l 85 717 l -29 765 l 153 963 l 183 963 l 364 765 l 250 717 z "},"ï":{"ha":311,"x_min":-22,"x_max":351,"o":"m 278 740 q 264 740 278 740 q 232 761 249 740 q 215 816 215 782 q 240 872 215 850 q 293 893 264 893 q 337 875 322 893 q 351 824 351 857 q 330 765 351 790 q 278 740 308 740 m 38 740 q 24 740 38 740 q -6 760 10 740 q -22 816 -22 781 q 0 872 -22 851 q 53 893 22 893 q 114 829 114 893 q 90 766 114 792 q 38 740 67 740 m 24 579 l 28 671 l 235 671 l 235 0 l 125 -6 q 119 322 125 129 q 113 582 114 514 l 24 579 z "},"ð":{"ha":715,"x_min":64,"x_max":656,"o":"m 571 942 l 463 860 q 656 404 656 647 q 563 103 656 213 q 321 -7 469 -7 q 140 72 215 -7 q 64 297 64 150 q 141 551 64 443 q 344 660 218 660 q 435 644 389 660 q 507 604 481 628 l 513 607 q 379 799 496 678 l 272 718 l 211 786 l 314 861 q 208 940 253 915 l 289 1014 q 399 924 338 981 l 513 1008 l 571 942 m 553 348 q 553 395 553 348 q 503 502 553 443 q 360 561 454 561 q 218 490 267 561 q 169 313 169 418 q 216 155 169 208 q 332 101 263 101 q 494 177 435 101 q 553 348 553 253 z "},"ñ":{"ha":694,"x_min":68,"x_max":619,"o":"m 199 782 l 107 824 q 261 938 176 938 q 352 914 296 938 q 429 890 408 890 q 497 947 471 890 l 585 899 q 465 783 539 783 q 367 815 432 783 q 274 846 301 846 q 199 782 225 846 m 192 489 q 451 668 335 668 q 615 438 615 668 l 615 301 q 619 1 615 72 l 499 -7 q 504 362 504 260 q 488 508 504 464 q 420 553 471 553 q 301 486 369 553 q 214 344 233 419 q 194 139 194 269 l 201 1 l 78 -7 q 75 413 75 333 l 68 646 l 161 650 l 182 490 l 192 489 z "},"ò":{"ha":642,"x_min":46,"x_max":599,"o":"m 347 664 q 599 347 599 664 q 519 90 599 190 q 310 -10 440 -10 q 113 77 181 -10 q 46 310 46 164 q 78 472 46 393 q 181 607 110 550 q 347 664 253 664 m 156 331 q 156 281 156 331 q 197 161 156 232 q 315 90 239 90 q 435 152 390 90 q 481 328 481 214 q 338 567 481 567 q 202 498 249 567 q 156 331 156 429 m 226 963 l 367 765 l 290 717 l 113 914 l 226 963 z "},"ó":{"ha":642,"x_min":46,"x_max":599,"o":"m 347 664 q 599 347 599 664 q 519 90 599 190 q 310 -10 440 -10 q 113 77 181 -10 q 46 310 46 164 q 78 472 46 393 q 181 607 110 550 q 347 664 253 664 m 156 331 q 156 281 156 331 q 197 161 156 232 q 315 90 239 90 q 435 152 390 90 q 481 328 481 214 q 338 567 481 567 q 202 498 249 567 q 156 331 156 429 m 292 765 l 432 963 l 546 914 l 368 717 l 292 765 z "},"ô":{"ha":642,"x_min":46,"x_max":599,"o":"m 347 664 q 599 347 599 664 q 519 90 599 190 q 310 -10 440 -10 q 113 77 181 -10 q 46 310 46 164 q 78 472 46 393 q 181 607 110 550 q 347 664 253 664 m 156 331 q 156 281 156 331 q 197 161 156 232 q 315 90 239 90 q 435 152 390 90 q 481 328 481 214 q 338 567 481 567 q 202 498 249 567 q 156 331 156 429 m 415 717 l 333 861 l 250 717 l 136 765 l 318 963 l 349 963 l 529 765 l 415 717 z "},"õ":{"ha":642,"x_min":46,"x_max":599,"o":"m 347 664 q 599 347 599 664 q 519 90 599 190 q 310 -10 440 -10 q 113 77 181 -10 q 46 310 46 164 q 78 472 46 393 q 181 607 110 550 q 347 664 253 664 m 156 331 q 156 281 156 331 q 197 161 156 232 q 315 90 239 90 q 435 152 390 90 q 481 328 481 214 q 338 567 481 567 q 202 498 249 567 q 156 331 156 429 m 178 754 l 86 796 q 240 910 156 910 q 331 886 275 910 q 408 863 388 863 q 476 919 450 863 l 564 871 q 444 756 518 756 q 346 787 411 756 q 253 818 281 818 q 178 754 204 818 z "},"ö":{"ha":642,"x_min":46,"x_max":599,"o":"m 347 664 q 599 347 599 664 q 519 90 599 190 q 310 -10 440 -10 q 113 77 181 -10 q 46 310 46 164 q 78 472 46 393 q 181 607 110 550 q 347 664 253 664 m 156 331 q 156 281 156 331 q 197 161 156 232 q 315 90 239 90 q 435 152 390 90 q 481 328 481 214 q 338 567 481 567 q 202 498 249 567 q 156 331 156 429 m 449 726 q 434 726 449 726 q 403 747 419 726 q 386 802 386 768 q 410 858 386 836 q 464 879 435 879 q 508 861 493 879 q 522 810 522 843 q 501 751 522 776 q 449 726 479 726 m 209 726 q 195 726 209 726 q 165 747 181 726 q 149 802 149 767 q 171 858 149 838 q 225 879 193 879 q 285 815 285 879 q 261 752 285 778 q 209 726 238 726 z "},"÷":{"ha":811,"x_min":72,"x_max":772,"o":"m 508 657 q 485 594 508 619 q 424 569 463 569 q 363 587 385 569 q 342 637 342 604 q 368 694 342 669 q 438 719 394 719 q 508 657 508 719 m 499 233 q 476 171 499 196 q 414 146 453 146 q 353 163 375 146 q 332 213 332 181 q 358 271 332 246 q 428 296 385 296 q 499 233 499 296 m 72 381 l 72 483 q 422 481 189 481 q 772 483 656 481 l 772 381 q 422 383 539 383 q 72 381 306 383 z "},"ø":{"ha":624,"x_min":36,"x_max":596,"o":"m 36 -54 l 111 75 q 43 310 43 160 q 75 472 43 393 q 178 607 107 550 q 344 664 250 664 q 447 646 400 664 l 496 728 l 593 718 l 521 596 q 596 353 596 517 q 517 90 596 190 q 310 -10 438 -10 q 182 18 235 -10 l 131 -69 l 36 -54 m 307 90 q 433 152 388 90 q 478 318 478 214 q 454 482 478 422 l 238 113 q 307 90 265 90 m 335 567 q 199 498 246 567 q 153 338 153 429 q 179 189 153 247 l 393 553 q 335 567 365 567 z "},"ù":{"ha":725,"x_min":83,"x_max":658,"o":"m 86 224 l 89 464 l 83 660 l 213 668 q 207 274 207 401 q 317 108 207 108 q 428 155 374 108 q 496 282 483 201 q 514 522 514 401 l 507 660 l 628 668 q 633 275 633 328 q 653 47 633 199 l 658 -4 l 547 -11 l 525 125 l 517 128 q 357 8 453 42 q 276 -7 317 -7 q 137 60 188 -7 q 86 224 86 128 m 335 963 l 475 765 l 399 717 l 221 914 l 335 963 z "},"ú":{"ha":725,"x_min":83,"x_max":658,"o":"m 86 224 l 89 464 l 83 660 l 213 668 q 207 274 207 401 q 317 108 207 108 q 428 155 374 108 q 496 282 483 201 q 514 522 514 401 l 507 660 l 628 668 q 633 275 633 328 q 653 47 633 199 l 658 -4 l 547 -11 l 525 125 l 517 128 q 357 8 453 42 q 276 -7 317 -7 q 137 60 188 -7 q 86 224 86 128 m 283 765 l 424 963 l 538 914 l 360 717 l 283 765 z "},"û":{"ha":725,"x_min":83,"x_max":658,"o":"m 86 224 l 89 464 l 83 660 l 213 668 q 207 274 207 401 q 317 108 207 108 q 428 155 374 108 q 496 282 483 201 q 514 522 514 401 l 507 660 l 628 668 q 633 275 633 328 q 653 47 633 199 l 658 -4 l 547 -11 l 525 125 l 517 128 q 357 8 453 42 q 276 -7 317 -7 q 137 60 188 -7 q 86 224 86 128 m 444 717 l 363 861 l 279 717 l 165 765 l 347 963 l 378 963 l 558 765 l 444 717 z "},"ü":{"ha":725,"x_min":83,"x_max":658,"o":"m 86 224 l 89 464 l 83 660 l 213 668 q 207 274 207 401 q 317 108 207 108 q 428 155 374 108 q 496 282 483 201 q 514 522 514 401 l 507 660 l 628 668 q 633 275 633 328 q 653 47 633 199 l 658 -4 l 547 -11 l 525 125 l 517 128 q 357 8 453 42 q 276 -7 317 -7 q 137 60 188 -7 q 86 224 86 128 m 478 740 q 464 740 478 740 q 432 761 449 740 q 415 816 415 782 q 440 872 415 850 q 493 893 464 893 q 537 875 522 893 q 551 824 551 857 q 530 765 551 790 q 478 740 508 740 m 238 740 q 224 740 238 740 q 194 760 210 740 q 178 816 178 781 q 200 872 178 851 q 253 893 222 893 q 314 829 314 893 q 290 766 314 792 q 238 740 267 740 z "},"ý":{"ha":681,"x_min":-40,"x_max":658,"o":"m 526 667 l 658 642 q 426 -7 460 103 q 376 -156 392 -117 q 331 -236 360 -194 q 158 -317 274 -317 q -40 -274 42 -317 l -6 -165 q 169 -214 79 -214 q 268 -169 231 -214 q 306 -61 306 -124 q 260 106 306 -12 l 40 640 l 176 672 l 368 125 l 526 667 m 301 765 l 442 963 l 556 914 l 378 717 l 301 765 z "},"þ":{"ha":717,"x_min":100,"x_max":674,"o":"m 443 658 q 614 584 554 658 q 674 407 674 510 q 638 215 674 304 q 531 63 603 126 q 371 0 458 0 q 221 54 283 0 l 229 -308 l 100 -318 q 106 299 106 140 q 103 1001 106 458 l 221 1017 l 210 553 l 211 549 l 224 546 q 284 604 261 585 q 349 641 307 624 q 443 658 392 658 m 213 315 q 213 264 213 315 q 257 160 213 213 q 377 107 301 107 q 503 192 453 107 q 553 365 553 278 q 517 503 553 453 q 405 554 482 554 q 270 485 328 554 q 213 315 213 417 z "},"ÿ":{"ha":681,"x_min":-40,"x_max":658,"o":"m 526 667 l 658 642 q 426 -7 460 103 q 376 -156 392 -117 q 331 -236 360 -194 q 158 -317 274 -317 q -40 -274 42 -317 l -6 -165 q 169 -214 79 -214 q 268 -169 231 -214 q 306 -61 306 -124 q 296 1 306 -37 q 260 106 275 67 l 40 640 l 176 672 l 368 125 l 526 667 m 492 740 q 477 740 492 740 q 446 761 463 740 q 429 816 429 782 q 453 872 429 850 q 507 893 478 893 q 551 875 536 893 q 565 824 565 857 q 544 765 565 790 q 492 740 522 740 m 252 740 q 238 740 252 740 q 208 760 224 740 q 192 816 192 781 q 214 872 192 851 q 267 893 236 893 q 328 829 328 893 q 304 766 328 792 q 252 740 281 740 z "},"ħ":{"ha":728,"x_min":-28,"x_max":649,"o":"m 18 804 q 89 801 67 804 q 86 907 86 882 l -21 899 l -28 1006 l 213 1015 l 213 801 l 386 804 q 389 727 389 753 q 386 701 389 701 q 213 704 339 704 l 213 507 l 224 504 q 265 556 235 524 q 322 610 296 589 q 387 649 349 632 q 461 667 425 667 q 600 602 556 667 q 644 438 644 538 l 642 197 l 649 1 l 521 -7 q 526 364 526 260 q 498 509 526 468 q 422 550 469 550 q 321 500 374 550 q 245 381 268 450 q 222 165 222 313 q 228 1 222 18 l 100 -7 q 94 432 94 347 q 90 701 94 517 l 1 696 l 3 804 l 18 804 z "},"Ĩ":{"ha":289,"x_min":-94,"x_max":383,"o":"m 79 899 l 215 906 l 200 4 l 88 0 l 79 899 m -3 961 l -94 1003 q 60 1117 -25 1117 q 151 1093 94 1117 q 228 1069 207 1069 q 296 1126 269 1069 l 383 1078 q 264 963 338 963 q 165 994 231 963 q 72 1025 100 1025 q -3 961 24 1025 z "},"ĩ":{"ha":333,"x_min":-82,"x_max":396,"o":"m 24 579 l 28 671 l 235 671 l 235 0 l 125 -6 q 119 322 125 129 q 113 582 114 514 l 24 579 m 10 740 l -82 782 q 72 896 -12 896 q 163 872 107 896 q 240 849 219 849 q 308 906 282 849 l 396 857 q 276 742 350 742 q 178 773 243 742 q 85 804 113 804 q 10 740 36 804 z "},"ı":{"ha":333,"x_min":24,"x_max":235,"o":"m 24 579 l 28 671 l 235 671 l 235 0 l 125 -6 q 119 322 125 129 q 113 582 114 514 l 24 579 z "},"Ĳ":{"ha":947,"x_min":79,"x_max":876,"o":"m 79 899 l 215 906 l 200 4 l 88 0 l 79 899 m 763 413 l 749 900 l 874 910 q 876 492 876 571 q 870 348 876 413 q 845 215 864 283 q 795 102 826 147 q 710 28 764 57 q 581 -1 657 -1 q 443 33 506 -1 q 303 139 381 68 l 371 243 q 484 160 419 197 q 603 124 549 124 q 690 150 657 124 q 739 224 724 176 q 763 413 763 303 z "},"ĳ":{"ha":696,"x_min":24,"x_max":607,"o":"m 24 579 l 28 671 l 235 671 l 235 0 l 125 -6 q 119 322 125 129 q 113 582 114 514 l 24 579 m 261 829 q 238 767 261 792 q 176 742 215 742 q 116 759 138 742 q 94 809 94 776 q 121 867 94 842 q 190 892 147 892 q 261 829 261 892 m 383 571 l 390 664 l 586 667 q 589 197 589 276 q 285 -296 589 -296 q 118 -258 200 -296 l 168 -143 q 300 -183 240 -183 q 430 -102 386 -183 q 475 118 474 -21 q 469 571 475 410 l 383 571 m 607 829 q 584 767 607 792 q 522 742 561 742 q 462 759 483 742 q 440 809 440 776 q 467 867 440 842 q 536 892 493 892 q 607 829 607 892 z "},"Ĵ":{"ha":658,"x_min":14,"x_max":706,"o":"m 474 413 l 460 900 l 585 910 q 588 492 588 571 q 581 348 588 413 q 556 215 575 283 q 506 102 538 147 q 422 28 475 57 q 292 -1 368 -1 q 154 33 217 -1 q 14 139 92 68 l 82 243 q 195 160 131 197 q 314 124 260 124 q 401 150 368 124 q 450 224 435 176 q 474 413 474 303 m 592 938 l 510 1082 l 426 938 l 313 986 l 494 1183 l 525 1183 l 706 986 l 592 938 z "},"ĵ":{"ha":385,"x_min":-193,"x_max":389,"o":"m 72 571 l 79 664 l 275 667 q 278 197 278 276 q -26 -296 278 -296 q -193 -258 -111 -296 l -143 -143 q -11 -183 -71 -183 q 119 -102 75 -183 q 164 118 163 -21 q 158 571 164 410 l 72 571 m 275 717 l 193 861 l 110 717 l -4 765 l 178 963 l 208 963 l 389 765 l 275 717 z "},"ķ":{"ha":650,"x_min":-6,"x_max":622,"o":"m 222 442 l 222 386 q 399 481 325 399 q 496 672 474 563 l 593 650 q 593 638 593 643 q 540 494 593 574 q 400 357 488 414 l 622 11 l 489 -17 l 294 306 q 221 289 260 293 l 218 1 l 106 -7 l 103 386 q 96 908 103 575 l 38 903 l 4 899 l 0 900 l -6 1007 l 233 1013 q 222 442 222 533 m 333 -46 q 410 -125 410 -46 q 385 -214 410 -158 q 336 -308 361 -269 l 311 -349 l 222 -303 l 319 -187 l 314 -182 q 279 -190 294 -190 q 250 -172 264 -190 q 236 -126 236 -154 q 263 -72 236 -97 q 333 -46 290 -46 z "},"ĸ":{"ha":650,"x_min":1,"x_max":622,"o":"m 106 -7 q 96 565 101 253 l 7 561 l 1 654 l 228 668 l 222 386 q 399 481 325 399 q 496 672 474 563 l 593 650 q 538 497 593 581 q 400 357 483 413 l 622 11 l 489 -17 l 294 306 q 221 289 260 293 l 218 1 l 106 -7 z "},"Ŀ":{"ha":621,"x_min":67,"x_max":590,"o":"m 83 4 l 67 897 l 197 908 l 210 100 l 590 108 l 585 -12 l 83 4 m 571 635 q 548 572 571 597 q 486 547 525 547 q 426 565 447 547 q 404 615 404 582 q 431 672 404 647 q 500 697 457 697 q 571 635 571 697 z "},"ŀ":{"ha":561,"x_min":6,"x_max":472,"o":"m 10 899 l 6 1001 l 239 1013 q 226 383 226 475 l 224 1 l 113 -7 l 113 386 q 106 913 113 583 l 10 899 m 472 476 q 449 414 472 439 q 388 389 426 389 q 327 406 349 389 q 306 456 306 424 q 332 514 306 489 q 401 539 358 539 q 472 476 472 539 z "},"Ł":{"ha":621,"x_min":-61,"x_max":590,"o":"m -54 260 l -61 367 l 75 465 l 67 897 l 197 908 l 203 558 l 367 679 l 371 579 l 204 454 l 210 100 l 590 108 l 585 -12 l 83 4 l 76 358 l -54 260 z "},"ł":{"ha":354,"x_min":8,"x_max":361,"o":"m 15 376 l 8 475 l 125 560 q 119 913 125 586 l 24 899 l 19 1001 l 253 1013 q 244 629 247 807 l 357 711 l 361 619 l 242 529 q 240 383 240 463 l 238 1 l 126 -7 l 126 460 l 15 376 z "},"Ń":{"ha":733,"x_min":71,"x_max":663,"o":"m 213 -14 l 90 -8 l 71 890 l 203 897 l 536 267 l 526 913 l 663 903 l 639 -17 l 554 -14 l 183 661 l 213 -14 m 239 986 l 379 1183 l 493 1135 l 315 938 l 239 986 z "},"ń":{"ha":694,"x_min":68,"x_max":619,"o":"m 192 489 q 451 668 335 668 q 615 438 615 668 l 615 301 q 619 1 615 72 l 499 -7 q 504 362 504 260 q 488 508 504 464 q 420 553 471 553 q 301 486 369 553 q 214 344 233 419 q 194 139 194 269 l 201 1 l 78 -7 q 75 413 75 333 l 68 646 l 161 650 l 182 490 l 192 489 m 219 765 l 360 963 l 474 914 l 296 717 l 219 765 z "},"Œ":{"ha":1060,"x_min":50,"x_max":1018,"o":"m 585 889 l 1006 911 l 1011 788 l 708 789 l 714 522 l 957 526 l 956 404 l 718 410 l 718 114 l 1018 122 l 1018 -4 l 601 1 l 600 83 q 385 -12 517 -11 q 200 57 278 -12 q 50 454 50 189 q 150 780 50 660 q 375 900 250 900 q 586 819 500 900 l 585 889 m 364 796 q 231 701 289 796 q 172 451 172 607 q 235 196 172 296 q 390 96 299 96 q 590 492 590 96 q 526 715 590 635 q 364 796 463 796 z "},"œ":{"ha":1063,"x_min":46,"x_max":1019,"o":"m 1011 283 l 601 281 q 651 138 601 192 q 764 85 701 85 q 872 105 826 85 q 936 144 917 125 l 954 165 l 1011 90 q 767 -7 931 -7 q 531 106 603 -7 q 315 -10 450 -10 q 113 77 181 -10 q 46 310 46 164 q 78 472 46 393 q 181 607 110 550 q 347 664 253 664 q 563 540 501 664 q 803 663 657 663 q 967 585 915 663 q 1019 385 1019 508 q 1011 283 1019 333 m 156 331 q 156 281 156 331 q 197 161 156 232 q 315 90 239 90 q 435 152 390 90 q 481 328 481 214 q 338 567 481 567 q 202 498 249 567 q 156 331 156 429 m 911 363 q 881 514 911 463 q 776 565 851 565 q 651 499 700 565 q 600 360 601 433 l 911 363 z "},"Ŕ":{"ha":624,"x_min":58,"x_max":607,"o":"m 247 904 q 501 826 417 904 q 586 639 586 749 q 418 385 586 474 l 607 25 l 483 -19 l 310 357 l 183 358 l 193 4 l 74 -4 l 58 883 q 247 904 207 904 m 167 793 l 167 464 q 238 461 194 461 q 399 508 321 461 q 476 633 476 554 q 417 761 476 713 q 286 810 358 810 q 167 793 214 810 m 185 986 l 325 1183 l 439 1135 l 261 938 l 185 986 z "},"Ŗ":{"ha":624,"x_min":58,"x_max":607,"o":"m 247 904 q 501 826 417 904 q 586 639 586 749 q 418 385 586 474 l 607 25 l 483 -19 l 310 357 l 183 358 l 193 4 l 74 -4 l 58 883 q 247 904 207 904 m 167 793 l 167 464 q 238 461 194 461 q 399 508 321 461 q 476 633 476 554 q 417 761 476 713 q 286 810 358 810 q 167 793 214 810 m 324 -46 q 400 -125 400 -46 q 376 -214 400 -158 q 326 -308 351 -269 l 301 -349 l 213 -303 l 310 -187 l 304 -182 q 269 -190 285 -190 q 240 -172 254 -190 q 226 -126 226 -154 q 253 -72 226 -97 q 324 -46 281 -46 z "},"ŗ":{"ha":515,"x_min":86,"x_max":515,"o":"m 88 651 l 188 663 l 200 531 l 208 532 q 401 671 282 671 q 515 636 457 671 l 467 529 q 370 561 417 561 q 288 520 324 561 q 231 409 251 479 q 211 244 211 339 q 218 0 211 150 l 89 -6 q 92 367 92 219 l 88 651 m 197 -46 q 274 -125 274 -46 q 249 -214 274 -158 q 200 -308 225 -269 l 175 -349 l 86 -303 l 183 -187 l 178 -182 q 143 -190 158 -190 q 114 -172 128 -190 q 100 -126 100 -154 q 127 -72 100 -97 q 197 -46 154 -46 z "},"Ř":{"ha":624,"x_min":58,"x_max":607,"o":"m 247 904 q 501 826 417 904 q 586 639 586 749 q 418 385 586 474 l 607 25 l 483 -19 l 310 357 l 183 358 l 193 4 l 74 -4 l 58 883 q 247 904 207 904 m 167 793 l 167 464 q 238 461 194 461 q 399 508 321 461 q 476 633 476 554 q 417 761 476 713 q 286 810 358 810 q 167 793 214 810 m 215 1183 l 297 1039 l 381 1183 l 494 1135 l 313 938 l 282 938 l 101 1135 l 215 1183 z "},"ř":{"ha":515,"x_min":61,"x_max":515,"o":"m 88 651 l 188 663 l 200 531 l 208 532 q 401 671 282 671 q 515 636 457 671 l 467 529 q 370 561 417 561 q 288 520 324 561 q 231 409 251 479 q 211 244 211 339 q 218 0 211 150 l 89 -6 q 92 367 92 219 l 88 651 m 175 963 l 257 818 l 340 963 l 454 914 l 272 717 l 242 717 l 61 914 l 175 963 z "},"Š":{"ha":522,"x_min":36,"x_max":489,"o":"m 297 114 q 317 121 297 114 q 357 160 336 128 q 378 239 378 192 q 342 318 378 286 q 257 373 307 350 q 157 424 207 396 q 72 508 107 453 q 36 644 36 564 q 118 842 36 769 q 351 915 200 915 q 440 908 388 915 l 464 796 q 356 808 407 808 q 149 649 149 808 q 268 503 149 550 q 369 459 318 482 q 454 388 419 436 q 489 267 489 339 q 463 143 489 194 q 399 62 438 92 q 300 14 360 32 q 61 -17 201 -17 l 36 100 q 139 92 86 92 q 225 96 192 92 q 297 114 258 100 m 203 1197 l 285 1053 l 368 1197 l 482 1149 l 300 951 l 269 951 l 89 1149 l 203 1197 z "},"š":{"ha":582,"x_min":29,"x_max":543,"o":"m 93 185 q 197 117 132 144 q 317 90 261 90 q 402 118 372 90 q 432 179 432 146 q 393 229 432 213 q 299 257 354 246 q 190 285 244 268 q 96 342 135 301 q 57 449 57 383 q 126 608 57 549 q 290 668 194 668 q 538 586 436 668 l 486 493 q 392 546 453 522 q 276 569 331 569 q 189 541 222 569 q 156 460 156 513 q 195 409 156 428 q 292 378 235 390 q 406 350 349 367 q 503 294 464 333 q 543 194 543 256 q 477 52 543 107 q 322 -3 411 -3 q 155 26 232 -3 q 29 100 78 54 q 93 185 46 119 m 219 963 l 301 818 l 385 963 l 499 914 l 317 717 l 286 717 l 106 914 l 219 963 z "},"Ÿ":{"ha":782,"x_min":24,"x_max":758,"o":"m 471 369 l 486 0 l 343 0 l 356 369 l 24 846 l 126 921 l 422 476 l 651 931 l 758 882 l 471 369 m 515 975 q 500 975 515 975 q 468 996 485 975 q 451 1051 451 1017 q 476 1106 451 1085 q 529 1128 500 1128 q 573 1110 558 1128 q 588 1058 588 1092 q 566 1000 588 1025 q 515 975 544 975 m 274 975 q 260 975 274 975 q 230 995 246 975 q 214 1051 214 1015 q 236 1107 214 1086 q 289 1128 258 1128 q 350 1064 350 1128 q 326 1001 350 1026 q 274 975 303 975 z "},"Ž":{"ha":692,"x_min":42,"x_max":650,"o":"m 203 111 l 650 124 l 644 -1 l 47 -10 l 42 75 l 490 786 q 76 771 264 783 l 78 894 l 643 894 l 643 810 l 203 111 m 304 1183 l 386 1039 l 469 1183 l 583 1135 l 401 938 l 371 938 l 190 1135 l 304 1183 z "},"ž":{"ha":632,"x_min":56,"x_max":576,"o":"m 575 -1 l 360 1 q 68 -10 174 1 l 56 89 l 446 568 q 82 558 221 568 l 76 669 q 319 667 168 667 q 565 669 471 667 l 569 582 l 194 88 l 576 103 l 575 -1 m 243 990 l 325 846 l 408 990 l 522 942 l 340 744 l 310 744 l 129 942 l 243 990 z "},"ƒ":{"ha":675,"x_min":-156,"x_max":713,"o":"m 218 467 l 126 464 l 131 506 l 229 571 l 231 571 l 233 600 q 324 895 251 783 q 526 1007 397 1007 q 713 956 611 1007 l 681 840 q 528 890 608 890 q 410 822 447 890 q 357 574 374 754 l 558 581 l 538 463 l 347 465 q 324 118 329 194 q 235 -176 310 -62 q 31 -289 160 -289 q -156 -237 -54 -289 l -124 -122 q 29 -172 -51 -172 q 147 -101 110 -172 q 199 157 185 -31 l 222 467 l 218 467 z "},"ˆ":{"ha":510,"x_min":19,"x_max":413,"o":"m 299 717 l 217 861 l 133 717 l 19 765 l 201 963 l 232 963 l 413 765 l 299 717 z "},"ˇ":{"ha":438,"x_min":19,"x_max":413,"o":"m 133 963 l 215 818 l 299 963 l 413 914 l 231 717 l 200 717 l 19 914 l 133 963 z "},"˘":{"ha":617,"x_min":69,"x_max":547,"o":"m 547 924 q 308 722 488 722 q 69 924 129 722 l 178 963 q 308 810 218 810 q 439 963 399 810 l 547 924 z "},"˙":{"ha":306,"x_min":69,"x_max":236,"o":"m 236 822 q 213 760 236 785 q 151 735 190 735 q 91 752 113 735 q 69 802 69 769 q 96 860 69 835 q 165 885 122 885 q 236 822 236 885 z "},"˚":{"ha":400,"x_min":58,"x_max":329,"o":"m 58 987 q 58 1015 58 987 q 97 1087 58 1043 q 200 1131 135 1131 q 297 1094 265 1131 q 329 1000 329 1057 q 294 897 329 943 q 196 851 258 851 q 96 891 133 851 q 58 987 58 931 m 190 926 q 251 990 251 926 q 201 1054 251 1054 q 152 1035 169 1054 q 135 990 135 1017 q 150 945 135 964 q 190 926 165 926 z "},"˛":{"ha":433,"x_min":69,"x_max":364,"o":"m 335 -221 l 364 -304 q 243 -325 311 -325 q 122 -293 175 -325 q 69 -195 69 -261 q 118 -70 69 -129 q 233 19 167 -11 l 325 0 q 247 -57 271 -39 q 199 -107 224 -75 q 175 -172 175 -139 q 197 -230 175 -206 q 249 -254 219 -254 q 335 -221 304 -254 z "},"˜":{"ha":535,"x_min":26,"x_max":504,"o":"m 118 782 l 26 824 q 181 938 96 938 q 272 914 215 938 q 349 890 328 890 q 417 947 390 890 l 504 899 q 385 783 458 783 q 286 815 351 783 q 193 846 221 846 q 118 782 144 846 z "},"˝":{"ha":550,"x_min":14,"x_max":543,"o":"m 14 765 l 154 963 l 268 914 l 90 717 l 14 765 m 289 765 l 429 963 l 543 914 l 365 717 l 289 765 z "},"̇":{"ha":306,"x_min":69,"x_max":236,"o":"m 236 822 q 213 760 236 785 q 151 735 190 735 q 91 752 113 735 q 69 802 69 769 q 96 860 69 835 q 165 885 122 885 q 236 822 236 885 z "},"π":{"ha":744,"x_min":-3,"x_max":707,"o":"m 57 511 l -3 576 q 128 665 54 646 q 344 685 203 685 q 704 692 486 685 l 707 571 l 589 579 q 644 17 590 274 l 522 -19 q 490 476 490 150 q 492 581 490 526 l 282 581 q 189 -26 279 153 l 81 10 q 147 232 131 104 q 169 565 164 360 q 112 544 146 561 q 57 511 78 528 z "},"–":{"ha":838,"x_min":69,"x_max":768,"o":"m 76 376 l 69 483 l 764 483 l 768 383 l 76 376 z "},"—":{"ha":1544,"x_min":67,"x_max":1475,"o":"m 74 376 l 67 483 l 1471 483 l 1475 383 l 74 376 z "},"‘":{"ha":229,"x_min":21,"x_max":208,"o":"m 97 740 q 21 819 21 740 q 45 908 21 853 q 94 1003 69 964 l 119 1043 l 208 997 l 111 882 l 117 876 q 151 885 136 885 q 181 867 167 885 q 194 820 194 849 q 167 766 194 792 q 97 740 140 740 z "},"’":{"ha":229,"x_min":21,"x_max":208,"o":"m 132 1043 q 208 964 208 1043 q 183 875 208 931 q 133 781 158 819 l 110 740 l 21 786 l 118 901 l 113 907 q 78 899 93 899 q 49 917 63 899 q 35 963 35 935 q 62 1017 35 992 q 132 1043 89 1043 z "},"‚":{"ha":233,"x_min":24,"x_max":211,"o":"m 135 150 q 211 71 211 150 q 186 -18 211 38 q 136 -114 161 -74 l 113 -153 l 24 -107 l 121 8 l 115 14 q 81 6 96 6 q 51 24 65 6 q 38 70 38 42 q 65 124 38 99 q 135 150 92 150 z "},"“":{"ha":464,"x_min":31,"x_max":432,"o":"m 321 740 q 244 819 244 740 q 269 908 244 853 q 319 1003 294 964 l 343 1043 l 432 997 l 335 882 l 340 876 q 375 885 360 885 q 404 867 390 885 q 418 820 418 849 q 391 766 418 792 q 321 740 364 740 m 107 740 q 31 819 31 740 q 55 908 31 853 q 104 1003 79 964 l 129 1043 l 218 997 l 121 882 l 126 876 q 161 885 146 885 q 190 867 176 885 q 204 820 204 849 q 177 766 204 792 q 107 740 150 740 z "},"”":{"ha":464,"x_min":32,"x_max":433,"o":"m 143 1043 q 219 964 219 1043 q 194 875 219 931 q 144 781 169 819 l 121 740 l 32 786 l 129 901 l 124 907 q 89 899 104 899 q 60 917 74 899 q 46 963 46 935 q 73 1017 46 992 q 143 1043 100 1043 m 357 1043 q 433 964 433 1043 q 408 875 433 931 q 358 781 383 819 l 335 740 l 246 786 l 343 901 l 338 907 q 303 899 318 899 q 274 917 288 899 q 260 963 260 935 q 287 1017 260 992 q 357 1043 314 1043 z "},"„":{"ha":464,"x_min":32,"x_max":433,"o":"m 143 149 q 219 69 219 149 q 194 -19 219 36 q 144 -114 169 -75 l 121 -154 l 32 -108 l 129 7 l 124 13 q 89 4 104 4 q 60 22 74 4 q 46 69 46 40 q 73 123 46 97 q 143 149 100 149 m 357 149 q 433 69 433 149 q 408 -19 433 36 q 358 -114 383 -75 l 335 -154 l 246 -108 l 343 7 l 338 13 q 303 4 318 4 q 274 22 288 4 q 260 69 260 40 q 287 123 260 97 q 357 149 314 149 z "},"†":{"ha":678,"x_min":18,"x_max":650,"o":"m 267 893 l 411 907 q 403 751 407 864 q 399 615 400 639 l 650 615 q 621 490 626 490 q 396 497 556 494 q 392 -128 392 414 l 269 -132 l 269 497 l 44 494 l 18 615 q 267 611 126 611 l 267 893 z "},"‡":{"ha":678,"x_min":19,"x_max":649,"o":"m 394 265 l 626 268 q 644 179 632 268 l 649 150 q 399 149 474 149 q 401 9 400 121 q 406 -144 401 -103 l 267 -131 l 267 151 q 22 150 58 151 l 35 268 l 268 269 l 268 410 q 269 497 268 464 l 31 494 l 19 614 q 260 611 92 611 l 260 893 l 408 907 q 402 753 404 865 q 399 614 400 640 l 647 614 q 633 494 639 494 l 394 497 q 393 389 393 465 q 394 265 393 313 z "},"•":{"ha":649,"x_min":96,"x_max":550,"o":"m 96 445 q 96 491 96 445 q 160 607 96 536 q 333 678 224 678 q 496 619 442 678 q 550 467 550 560 q 491 299 550 374 q 326 225 432 225 q 158 290 221 225 q 96 445 96 354 z "},"…":{"ha":775,"x_min":39,"x_max":736,"o":"m 206 85 q 183 22 206 47 q 121 -3 160 -3 q 60 15 82 -3 q 39 65 39 32 q 65 122 39 97 q 135 147 92 147 q 206 85 206 147 m 471 85 q 448 22 471 47 q 386 -3 425 -3 q 326 15 347 -3 q 304 65 304 32 q 331 122 304 97 q 400 147 357 147 q 471 85 471 147 m 736 85 q 713 22 736 47 q 651 -3 690 -3 q 591 15 613 -3 q 569 65 569 32 q 596 122 569 97 q 665 147 622 147 q 736 85 736 147 z "},"‰":{"ha":1468,"x_min":69,"x_max":1399,"o":"m 740 925 l 835 875 l 271 -25 l 183 24 l 740 925 m 569 213 q 569 252 569 213 q 625 352 569 292 q 774 413 681 413 q 913 361 867 413 q 960 231 960 310 q 909 88 960 153 q 767 24 858 24 q 623 79 676 24 q 569 213 569 135 m 760 119 q 860 219 860 119 q 779 318 860 318 q 698 289 726 318 q 669 219 669 260 q 694 149 669 179 q 760 119 719 119 m 69 678 q 69 718 69 678 q 125 817 69 757 q 274 878 181 878 q 413 826 367 878 q 460 697 460 775 q 409 553 460 618 q 267 489 358 489 q 123 544 176 489 q 69 678 69 600 m 260 585 q 360 684 360 585 q 279 783 360 783 q 198 754 226 783 q 169 685 169 725 q 194 615 169 644 q 260 585 219 585 m 1008 213 q 1008 252 1008 213 q 1064 352 1008 292 q 1213 413 1119 413 q 1352 361 1306 413 q 1399 231 1399 310 q 1348 88 1399 153 q 1206 24 1297 24 q 1062 79 1115 24 q 1008 213 1008 135 m 1199 119 q 1299 219 1299 119 q 1218 318 1299 318 q 1137 289 1165 318 q 1108 219 1108 260 q 1133 149 1108 179 q 1199 119 1158 119 z "},"‹":{"ha":425,"x_min":69,"x_max":356,"o":"m 274 129 l 69 357 l 274 585 l 356 514 l 188 358 l 356 200 l 274 129 z "},"›":{"ha":425,"x_min":69,"x_max":356,"o":"m 356 357 l 151 129 l 69 200 l 238 358 l 69 514 l 151 585 l 356 357 z "},"⁄":{"ha":790,"x_min":69,"x_max":721,"o":"m 626 925 l 721 875 l 157 -25 l 69 24 l 626 925 z "},"⁰":{"ha":692,"x_min":103,"x_max":544,"o":"m 335 369 q 163 446 222 369 q 103 633 103 522 q 165 832 103 744 q 331 919 228 919 q 489 836 433 919 q 544 642 544 753 q 485 451 544 532 q 335 369 426 369 m 256 486 q 335 447 288 447 q 411 506 382 447 q 440 642 440 564 q 409 775 440 719 q 326 831 378 831 q 238 779 274 831 q 203 638 203 728 q 256 486 203 549 z "},"⁴":{"ha":526,"x_min":69,"x_max":457,"o":"m 164 592 l 303 593 l 297 782 l 386 779 l 392 594 l 450 596 l 457 504 l 394 504 l 399 369 l 301 369 l 301 506 l 258 506 q 78 499 139 506 l 69 571 l 231 918 l 321 886 l 164 592 z "},"€":{"ha":800,"x_min":42,"x_max":744,"o":"m 82 588 q 153 585 104 585 q 510 904 199 904 q 722 814 651 904 l 628 728 q 494 792 583 792 q 349 734 404 792 q 276 585 293 676 l 582 588 l 551 494 q 292 499 468 499 l 268 499 l 268 496 q 271 422 268 446 l 540 425 l 514 333 q 285 336 451 336 l 283 336 q 362 161 306 228 q 511 94 418 94 q 644 182 604 94 l 744 150 q 659 29 714 76 q 493 -18 604 -18 q 256 78 338 -18 q 153 335 175 174 l 42 333 l 82 426 l 144 424 l 144 497 l 44 496 l 82 588 z "},"ℓ":{"ha":646,"x_min":42,"x_max":618,"o":"m 536 225 l 618 161 q 500 25 568 72 q 366 -22 432 -22 q 251 15 300 -22 q 178 125 203 53 q 153 232 164 165 q 82 189 125 213 l 42 263 q 142 328 92 292 q 135 481 135 399 q 135 597 135 563 q 140 692 136 632 q 153 791 144 751 q 178 878 161 831 q 219 953 196 925 q 359 1019 276 1019 q 486 964 442 1019 q 531 804 531 908 q 456 560 531 700 q 244 303 382 419 q 386 69 268 69 q 477 115 433 69 q 536 225 521 160 m 240 415 q 381 616 335 511 q 428 792 428 721 q 354 929 428 929 q 240 415 240 929 z "},"™":{"ha":1272,"x_min":69,"x_max":1203,"o":"m 69 669 q 206 959 69 857 q 594 1061 343 1061 q 839 1035 731 1061 q 1014 967 947 1008 q 1125 867 1081 925 q 1203 632 1203 764 q 1087 344 1203 447 q 744 242 971 242 q 381 297 547 242 q 222 375 290 328 q 112 498 154 422 q 69 669 69 574 m 957 428 l 1054 433 l 1018 886 l 933 888 l 821 589 l 681 888 l 601 889 l 572 428 l 676 425 l 681 688 l 799 432 l 846 432 l 943 682 l 957 428 m 553 890 l 217 893 l 218 811 l 335 814 l 322 433 l 426 433 l 428 814 l 543 814 l 553 890 z "},"Ω":{"ha":949,"x_min":67,"x_max":882,"o":"m 222 115 q 85 460 85 260 q 202 780 85 660 q 476 900 319 900 q 749 789 633 900 q 864 472 864 678 q 824 279 864 378 q 722 115 785 181 l 882 122 l 878 7 l 556 7 l 557 67 q 736 492 736 204 q 658 713 736 632 q 473 794 581 794 q 286 706 365 794 q 207 454 207 617 q 252 239 207 340 q 388 67 297 138 l 389 7 l 67 7 l 71 126 l 222 115 z "},"℮":{"ha":1399,"x_min":125,"x_max":1274,"o":"m 1274 474 l 343 474 q 335 467 335 474 l 335 186 q 349 154 335 164 q 700 0 499 0 q 904 46 808 0 q 1069 171 1000 92 l 1154 171 q 955 24 1075 78 q 699 -29 835 -29 q 292 122 460 -29 q 125 487 125 272 q 292 853 125 701 q 698 1004 460 1004 q 1105 853 936 1004 q 1274 488 1274 701 l 1274 474 m 1063 510 l 1063 794 q 1049 828 1063 811 q 699 975 899 975 q 350 822 500 975 q 335 788 335 808 l 335 510 q 343 501 335 501 l 1056 501 q 1063 510 1063 501 z "},"∂":{"ha":699,"x_min":63,"x_max":644,"o":"m 189 813 l 92 893 q 340 1014 204 1014 q 560 879 475 1014 q 644 551 644 744 q 575 174 644 338 q 481 43 540 92 q 344 -6 421 -6 q 133 89 203 -6 q 63 319 63 183 q 140 540 63 456 q 330 625 218 625 q 531 522 442 625 q 532 580 532 536 q 524 678 532 624 q 496 785 515 732 q 438 872 476 839 q 349 904 399 904 q 256 878 299 904 q 189 813 213 853 m 179 306 q 179 262 179 306 q 220 151 179 218 q 339 83 261 83 q 465 151 417 83 q 514 299 514 219 q 329 515 514 515 q 218 455 257 515 q 179 306 179 394 z "},"∆":{"ha":658,"x_min":25,"x_max":651,"o":"m 651 4 l 25 1 l 263 900 l 369 896 l 651 4 m 496 108 l 315 733 l 174 104 l 496 108 z "},"∏":{"ha":729,"x_min":68,"x_max":671,"o":"m 68 906 l 647 901 l 671 1 l 542 1 l 535 789 l 211 789 l 211 -8 l 100 -8 l 68 906 z "},"∑":{"ha":693,"x_min":31,"x_max":614,"o":"m 43 819 l 46 900 l 590 911 l 594 797 l 201 800 l 467 449 l 208 103 l 614 122 l 614 -4 l 32 1 l 31 67 l 339 450 l 43 819 z "},"−":{"ha":838,"x_min":72,"x_max":772,"o":"m 72 381 l 72 483 q 422 481 189 481 q 772 483 656 481 l 772 381 q 422 383 539 383 q 72 381 306 383 z "},"√":{"ha":913,"x_min":69,"x_max":843,"o":"m 264 419 l 463 -160 l 724 1022 l 843 1003 q 684 361 810 904 q 518 -294 558 -182 l 400 -306 q 289 -2 357 -199 q 182 299 221 194 l 97 260 l 69 347 l 264 419 z "},"∞":{"ha":1156,"x_min":97,"x_max":1058,"o":"m 710 217 q 681 237 710 217 q 618 294 651 257 q 582 333 585 331 q 551 301 579 331 q 505 256 522 271 q 454 219 488 242 q 297 176 389 176 q 151 243 204 176 q 97 400 97 310 q 150 554 97 490 q 299 618 203 618 q 464 567 394 618 q 582 460 522 524 q 660 540 629 511 q 744 593 692 568 q 857 618 797 618 q 1006 554 953 618 q 1058 400 1058 490 q 1005 243 1058 310 q 860 176 951 176 q 710 217 768 176 m 522 397 q 456 461 478 442 q 334 521 390 521 q 242 483 278 521 q 206 395 206 446 q 241 309 206 344 q 340 274 276 274 q 456 333 390 274 q 522 397 478 353 m 640 397 l 672 364 q 826 274 764 274 q 923 309 888 274 q 958 395 958 344 q 922 483 958 446 q 824 521 886 521 q 672 431 764 521 l 640 397 z "},"∫":{"ha":461,"x_min":-49,"x_max":469,"o":"m 257 731 l 278 -18 l 278 -53 q 99 -364 278 -364 q -49 -325 35 -364 l -1 -211 q 99 -256 67 -256 q 164 -103 164 -256 l 164 -78 l 143 671 l 143 706 q 322 1017 143 1017 q 469 978 386 1017 l 422 864 q 322 908 354 908 q 257 756 257 908 l 257 731 z "},"≈":{"ha":793,"x_min":69,"x_max":724,"o":"m 161 481 l 69 522 q 149 624 107 594 q 245 653 190 653 q 397 614 300 653 q 525 575 494 575 q 632 653 594 575 l 724 611 q 644 510 686 539 q 548 481 603 481 q 396 519 493 481 q 267 558 299 558 q 161 481 199 558 m 161 207 l 69 249 q 149 350 107 321 q 245 379 190 379 q 397 340 300 379 q 525 301 494 301 q 632 379 594 301 l 724 338 q 644 236 686 265 q 548 207 603 207 q 396 246 493 207 q 267 285 299 285 q 161 207 199 285 z "},"≠":{"ha":894,"x_min":107,"x_max":807,"o":"m 807 515 q 576 518 654 515 l 465 343 q 807 346 693 343 l 807 243 q 406 246 471 246 l 236 -24 l 149 25 l 285 246 q 195 244 254 244 q 107 243 136 244 l 107 346 q 346 343 265 343 l 454 518 q 107 515 338 518 l 107 618 q 373 615 276 615 q 514 615 469 615 l 668 864 l 763 814 l 638 615 q 807 618 693 615 l 807 515 z "},"≤":{"ha":944,"x_min":97,"x_max":847,"o":"m 99 -3 l 99 100 q 449 97 274 97 l 799 100 l 799 -3 q 449 0 624 0 l 99 -3 m 847 819 l 217 547 l 847 275 l 800 176 l 97 496 l 97 599 l 800 918 l 847 819 z "},"≥":{"ha":944,"x_min":97,"x_max":847,"o":"m 846 100 l 846 -3 q 496 0 671 0 l 146 -3 l 146 100 q 496 97 321 97 l 846 100 m 728 547 l 97 819 l 144 918 l 847 599 l 847 496 l 144 176 l 97 275 l 728 547 z "},"◊":{"ha":756,"x_min":69,"x_max":686,"o":"m 317 -69 l 69 460 l 326 978 l 439 989 l 686 460 l 429 -58 l 317 -69 m 186 469 l 376 49 l 568 450 l 379 871 l 186 469 z "},"ﬀ":{"ha":853,"x_min":17,"x_max":986,"o":"m 506 -7 l 511 565 l 225 567 l 228 10 l 103 -7 l 108 565 l 17 563 l 21 604 l 119 669 q 200 932 119 842 q 400 1022 281 1022 q 625 951 519 1022 q 794 1021 697 1021 q 986 961 892 1021 l 942 867 q 799 915 871 915 q 680 851 728 915 q 632 671 632 786 l 846 679 l 825 561 l 628 565 l 631 10 l 506 -7 m 561 867 q 417 918 503 918 q 281 853 332 918 q 229 667 229 789 l 522 668 q 561 867 522 790 z "},"ﬁ":{"ha":754,"x_min":25,"x_max":692,"o":"m 111 -7 l 117 565 l 25 563 l 29 604 l 128 669 q 219 931 128 840 q 432 1022 311 1022 q 609 963 526 1022 q 692 843 692 904 q 664 778 692 801 q 603 756 636 756 q 548 773 569 756 q 526 820 526 790 q 542 871 526 850 l 542 876 q 424 915 482 915 q 291 844 344 915 q 238 661 238 774 l 678 671 l 678 0 l 568 -6 q 563 322 568 129 q 556 582 557 514 l 233 568 l 236 10 l 111 -7 z "},"ﬂ":{"ha":797,"x_min":25,"x_max":696,"o":"m 111 -7 l 117 565 l 25 563 l 29 604 l 128 669 q 197 920 128 821 q 396 1019 265 1019 q 579 976 506 1019 l 690 1013 l 696 1010 q 683 383 683 475 l 681 1 l 569 -7 l 569 386 q 563 872 569 394 q 407 918 481 918 q 285 852 333 918 q 238 667 238 786 l 451 671 l 433 567 l 233 568 l 236 10 l 111 -7 z "},"ﬃ":{"ha":1197,"x_min":17,"x_max":1092,"o":"m 103 -7 l 108 565 l 17 563 l 21 604 l 119 669 q 210 922 119 822 q 428 1021 300 1021 q 631 949 532 1021 q 816 1024 701 1024 q 1011 972 931 1024 q 1092 843 1092 921 q 1064 778 1092 801 q 1001 756 1036 756 q 946 775 965 756 q 926 822 926 794 q 946 874 926 850 q 818 926 889 926 q 692 856 747 926 q 638 669 638 786 l 1078 671 l 1078 0 l 968 -6 q 963 322 968 129 q 956 582 957 514 l 633 574 l 635 10 l 517 -6 l 519 569 l 225 567 l 228 10 l 103 -7 m 571 872 q 440 919 508 919 q 291 845 353 919 q 229 667 229 771 l 522 667 q 571 872 522 778 z "},"ﬄ":{"ha":1213,"x_min":17,"x_max":1099,"o":"m 103 -7 l 108 565 l 17 563 l 21 604 l 119 669 q 199 930 119 840 q 397 1019 279 1019 q 624 949 515 1019 q 800 1019 692 1019 q 982 976 908 1019 l 1093 1013 l 1099 1010 q 1086 383 1086 475 l 1083 1 l 972 -7 l 972 386 q 965 872 972 394 q 810 918 883 918 q 688 852 736 918 q 640 667 640 786 l 854 671 l 836 567 l 636 568 l 639 10 l 514 -7 l 519 565 l 225 567 l 228 10 l 103 -7 m 567 864 q 414 918 492 918 q 283 851 336 918 q 229 667 229 783 l 531 669 q 567 864 531 782 z "},"ﬆ":{"ha":1117,"x_min":29,"x_max":1150,"o":"m 93 185 q 197 117 132 144 q 317 90 261 90 q 402 117 372 90 q 432 180 432 144 q 393 233 432 215 q 299 262 354 251 q 190 288 244 272 q 96 343 135 303 q 57 449 57 383 q 126 608 57 549 q 290 668 194 668 q 426 646 347 668 q 397 758 397 693 q 471 926 397 865 q 641 988 544 988 q 793 937 738 988 q 849 794 849 886 q 835 664 849 744 l 1022 681 l 994 574 l 831 568 q 819 344 819 408 q 821 254 819 281 q 830 195 822 228 q 850 142 838 163 q 943 94 879 94 q 1061 176 1025 94 l 1150 133 q 1067 28 1118 65 q 924 -10 1015 -10 q 707 301 707 -10 l 715 558 l 611 556 l 621 611 l 729 658 q 749 771 749 708 q 713 864 749 833 q 624 894 678 894 q 531 858 571 894 q 492 736 492 822 q 538 586 492 650 l 486 493 q 392 546 453 522 q 276 569 331 569 q 189 541 222 569 q 156 460 156 513 q 195 409 156 428 q 292 378 235 390 q 406 350 349 367 q 503 294 464 333 q 543 194 543 256 q 477 52 543 107 q 322 -3 411 -3 q 155 26 232 -3 q 29 100 78 54 q 93 185 46 119 z "}}}
